<svg width="24" height="24" viewBox="0 0 24 24" fill="none" xmlns="http://www.w3.org/2000/svg">
<path d="M7.79987 4.28699C7.6124 4.47452 7.50708 4.72882 7.50708 4.99399C7.50708 5.25915 7.6124 5.51346 7.79987 5.70099L14.0919 11.994L7.79987 18.287C7.61033 18.4716 7.50167 18.7238 7.49767 18.9883C7.49368 19.2528 7.59468 19.5082 7.77855 19.6984C7.96243 19.8886 8.2142 19.9982 8.47872 20.0032C8.74324 20.0082 8.99896 19.9082 9.18987 19.725L9.21387 19.701L16.2139 12.701C16.4013 12.5135 16.5067 12.2592 16.5067 11.994C16.5067 11.7288 16.4013 11.4745 16.2139 11.287L9.21387 4.28699C9.02634 4.09952 8.77203 3.9942 8.50687 3.9942C8.2417 3.9942 7.9874 4.09952 7.79987 4.28699Z" fill="black"/>
</svg>
