<svg width="334" height="335" viewBox="0 0 334 335" fill="none" xmlns="http://www.w3.org/2000/svg">
<path d="M55.9309 95.8774H197.709C199.186 95.8774 200.602 96.4639 201.646 97.5079C202.69 98.5518 203.276 99.9677 203.276 101.444V137.164H50.3643V101.444C50.3643 99.9677 50.9507 98.5518 51.9947 97.5079C53.0386 96.4639 54.4546 95.8774 55.9309 95.8774Z" fill="#F1F2F8"/>
<path d="M171.874 86.4965C171.001 84.0339 172.193 81.3819 173.059 78.9159C174.611 74.487 175.144 69.765 174.617 65.1016C174.32 62.4975 173.581 59.7454 171.569 58.0665C169.677 56.7293 167.397 56.0513 165.082 56.1371C160.851 55.9845 156.138 56.8919 153.614 60.2865C150.929 63.8914 151.642 68.9103 152.602 73.3013C153.563 77.6923 154.585 82.5654 152.328 86.4531C149.812 90.7862 143.789 92.7223 142.531 97.5709C142.413 97.8868 142.372 98.2266 142.413 98.5616C142.454 98.8965 142.575 99.2166 142.766 99.4947C143.114 99.8152 143.549 100.025 144.016 100.097C150.323 101.671 156.9 101.684 163.399 101.687C167.881 101.687 182.645 104.241 183.832 98.093C185.147 91.2015 173.747 91.7782 171.874 86.4965Z" fill="#F1F2F8"/>
<path d="M133.762 92.3015C131.389 91.9218 128.542 92.3861 126.951 90.5836C125.624 89.0795 125.965 86.6869 126.98 84.959C127.996 83.2311 129.549 81.8796 130.679 80.2229C131.842 78.468 132.51 76.4324 132.615 74.3298C132.72 72.2271 132.256 70.1352 131.273 68.2735C128.292 62.8015 121.496 60.6227 117.488 55.8521C116.251 56.1059 117.138 58.0787 116.672 59.2533C116.124 60.6294 114.129 60.262 112.679 59.9525C111.23 59.6429 109.053 60.6104 109.758 61.913C106.019 63.5574 104.971 68.3281 104.839 72.4107C104.708 76.4932 104.839 81.0468 102.077 84.0595C103.63 84.4413 104.425 86.1748 104.725 87.7413C105.024 89.3077 105.086 91.0223 106.04 92.3059C107.579 94.3801 111.161 94.998 111.409 97.5698C111.484 98.3602 111.198 99.2398 111.62 99.9078C111.841 100.168 112.113 100.382 112.419 100.535C112.725 100.688 113.059 100.777 113.401 100.798C120.726 102.109 128.147 102.817 135.588 102.914C145.969 103.179 140.702 93.4126 133.762 92.3015Z" fill="#F1F2F8"/>
<path d="M85.2639 96.0221C83.6952 95.2027 81.9239 94.8063 80.3975 93.9146C79.7913 93.6289 79.3204 93.118 79.0849 92.4906C78.811 91.4463 79.7306 90.4398 80.7226 90.0123C81.7146 89.5848 82.8379 89.4879 83.7842 88.9702C86.2892 87.5997 86.4562 83.9936 85.4977 81.3061C84.656 78.9536 86.1657 79.3945 86.316 77.2179C86.3432 76.6879 86.2184 76.1612 85.9563 75.6999C85.6941 75.2385 85.3056 74.8617 84.8363 74.6138C84.0136 74.1941 82.8713 74.095 82.5228 73.2388C82.408 72.8707 82.3907 72.479 82.4727 72.1021C83.0294 67.9494 86.2013 62.0576 83.8666 58.0797C83.223 57.0381 82.2602 56.2321 81.1216 55.7818C79.983 55.3314 78.7294 55.2607 77.5474 55.5803C75.5556 56.1681 74.0849 57.7969 72.4783 59.1129C70.8718 60.4288 68.7153 61.5121 66.7825 60.7606C66.1298 60.441 65.5 60.0764 64.8977 59.6695C63.506 58.9933 61.9457 58.743 60.4123 58.95C58.8789 59.1569 57.4408 59.812 56.2782 60.833C53.983 62.935 52.4878 65.7679 52.0476 68.849C51.5344 71.3295 51.5747 73.8927 52.1655 76.3559C52.7563 78.8191 53.883 81.1217 55.4655 83.0996C56.8015 84.6461 58.4615 85.8974 59.7106 87.5151C60.9598 89.1328 61.7636 91.3205 61.0233 93.2254C60.0213 95.8039 56.4319 97.5373 57.1199 100.217C57.6276 102.193 60.1126 102.778 62.1466 102.93C68.8997 103.451 75.6862 103.353 82.4215 102.639C83.9568 102.476 89.6415 102.625 89.9298 100.635C90.0824 99.5603 85.9931 96.4029 85.2639 96.0221Z" fill="#F1F2F8"/>
<path d="M46.4816 121.745H263.693C265.188 121.744 266.669 122.038 268.05 122.61C269.432 123.182 270.687 124.02 271.745 125.077C272.802 126.134 273.641 127.389 274.214 128.77C274.786 130.152 275.081 131.632 275.081 133.127V216.831H35.0967V133.127C35.0973 130.108 36.297 127.213 38.432 125.078C40.5671 122.944 43.4625 121.745 46.4816 121.745Z" fill="#E1DDEC"/>
<path d="M155.85 130.121C155.535 128.37 154.852 126.706 153.846 125.238C151.168 121.742 145.658 121.014 141.57 121.222C139.759 121.315 136.73 121.431 136.71 123.817C136.69 126.202 139.684 130.021 140.883 132.022C141.613 133.007 142.057 134.175 142.164 135.396C142.067 136.451 141.682 137.459 141.051 138.31C137.965 143.17 133.607 147.131 130.828 152.198C127.771 157.764 126.222 164.593 125.197 170.815C123.538 180.767 123.846 190.948 126.104 200.782C126.441 202.867 127.295 204.834 128.588 206.503C131.026 209.221 135.096 209.55 138.745 209.689C142.019 209.815 145.988 209.568 147.54 206.683C148.019 205.644 148.284 204.52 148.32 203.378C148.918 196.951 149.001 190.486 148.569 184.046C148.221 178.845 147.538 173.607 148.253 168.445C149.213 161.521 152.568 155.293 154.994 148.826C157.537 142.053 157.48 137.091 155.85 130.121Z" fill="#C6C6D0"/>
<path d="M54.2971 154.243C41.8612 168.969 35.4161 189.266 39.6835 208.055C39.8257 209.163 40.3261 210.194 41.1086 210.991C42.0282 211.6 43.1132 211.911 44.2159 211.881L51.663 212.425C52.3643 212.566 53.0931 212.427 53.6937 212.038C53.9597 211.715 54.1482 211.335 54.2447 210.928C54.3412 210.521 54.3431 210.097 54.2504 209.689C53.3597 198.667 51.4781 187.003 56.1486 176.977C58.6881 171.522 62.9511 167.105 66.7497 162.44C70.5484 157.775 74.051 152.476 74.5687 146.483C75.0318 141.118 73.0345 135.835 70.5017 131.082C69.0287 128.318 67.273 125.56 64.6188 123.893C61.6986 122.057 52.086 119.066 50.1756 123.424C49.374 125.254 49.7792 127.37 50.3069 129.299C51.6384 134.166 53.6516 138.82 56.2866 143.124C57.1167 144.255 57.6963 145.55 57.9867 146.923C58.4665 150.826 55.0341 152.472 53.0201 154.99C50.131 158.602 48.0714 163.371 46.0295 167.499C41.885 175.874 38.5168 184.612 35.9672 193.601C35.0999 196.66 34.3384 199.983 35.4695 202.953C35.9873 204.316 36.875 205.508 38.0329 206.393C39.1908 207.279 40.5729 207.825 42.0237 207.968C43.4746 208.111 44.9366 207.847 46.2453 207.204C47.5541 206.562 48.6576 205.567 49.4318 204.332" fill="#C6C6D0"/>
<path d="M223.112 125.285C222.465 123.81 221.292 122.628 219.822 121.97C218.277 121.514 216.656 121.378 215.057 121.571C213.831 121.495 212.603 121.492 211.377 121.562C209.156 121.945 209.596 122.769 210.309 124.7C211.896 129.013 213.481 133.327 215.064 137.642C215.225 137.968 215.275 138.338 215.206 138.695C215.06 139.018 214.818 139.287 214.513 139.468C205.362 146.292 202.251 157.751 202.044 168.62C201.901 175.912 201.891 183.204 202.013 190.496C202.052 192.853 202.356 195.711 201.606 197.987C200.885 200.179 199.625 202.301 198.814 204.511C198.217 205.81 197.964 207.24 198.077 208.665L201.701 208.847C203.328 209.053 204.935 209.392 206.506 209.861C209.137 210.418 212.238 210.793 214.188 208.947C215.346 207.612 216.033 205.933 216.145 204.169C218.338 190.222 215.762 175.445 220.71 162.226C222.646 157.048 225.72 152.142 226.093 146.626C226.432 142.054 226.189 137.456 225.369 132.945C224.973 130.3 224.213 127.722 223.112 125.285Z" fill="#C6C6D0"/>
<path d="M261.41 192.421C260.289 191.447 259.374 190.258 258.718 188.926C258.062 187.593 257.679 186.143 257.59 184.66C257.43 181.697 257.67 178.726 258.302 175.827L260.491 163.065C261.37 157.937 262.161 152.282 259.43 147.851C258.235 145.988 256.511 144.524 254.479 143.648C252.447 142.772 250.199 142.523 248.025 142.934C249.316 141.425 248.72 138.945 247.256 137.602C246.022 136.586 244.535 135.924 242.954 135.688C242.137 135.522 241.73 135.374 241.541 136.276C241.361 137.142 241.526 138.066 241.375 138.948C241.05 140.822 239.711 142.278 238.528 143.68C237.336 145.02 236.458 146.609 235.957 148.331C235.462 148.047 235.221 147.355 234.822 146.935C233.84 145.903 232.799 144.93 231.704 144.019C229.623 142.289 227.155 141.124 225.265 139.103C224.838 138.561 224.317 138.101 223.726 137.744C221.077 136.442 218.224 139.702 217.566 141.923C217.512 142.5 217.427 143.074 217.311 143.643C217.102 144.099 216.503 144.289 216.116 144.56C214.946 145.364 213.839 146.255 212.802 147.225C210.461 149.565 208.64 152.373 207.458 155.464C203.561 165.133 203.751 176.617 206.731 186.532C207.668 189.133 208.4 191.804 208.92 194.52C209.379 197.891 208.841 201.326 209.143 204.714C209.442 208.041 210.542 211.246 212.349 214.056C216.508 215.217 221.033 213.49 224.793 211.369C228.552 209.248 231.918 206.451 235.802 204.559C240.188 202.421 245.055 201.519 249.692 200.004C254.329 198.489 258.738 196.507 261.41 192.421Z" fill="#73CEC6"/>
<path d="M224.559 215.451C223.835 212.978 219.98 211.693 225.116 206.553C226.398 205.27 228.606 204.354 230.159 203.411C231.922 202.342 233.698 201.296 235.498 200.294C239.02 198.301 242.653 196.512 246.38 194.936C250.053 193.384 253.852 192.152 257.736 191.253C259.926 190.758 262.12 190.387 264.273 189.836C266.499 189.267 269.15 189.004 271.261 190.072C272.762 190.965 274.018 192.216 274.916 193.714C278.462 198.835 281.082 204.53 283.896 210.089C289.107 220.376 295.035 230.284 301.636 239.739C301.882 240.114 302.103 240.504 302.298 240.908L292.647 248.939C292.541 249.058 292.407 249.15 292.258 249.208C292.109 249.266 291.949 249.288 291.79 249.273C291.598 249.196 291.434 249.062 291.321 248.888L270.962 223.629C269.95 222.3 268.833 221.054 267.622 219.904C262.612 215.4 255.348 214.583 248.616 214.624C244.425 214.65 240.24 214.923 236.081 215.442C231.726 215.987 228.456 217.477 224.559 215.451Z" fill="#084EB2"/>
<path d="M304.462 265.249C305.17 266.353 306.15 267.257 307.308 267.874C312.059 270.815 317.438 272.593 323.006 273.062C323.984 273.184 324.976 273.147 325.942 272.951C327.456 272.432 328.821 271.554 329.92 270.39C331.214 269.684 332.191 268.51 332.651 267.109C333.111 265.708 333.02 264.184 332.396 262.847C332.396 262.708 332.342 262.573 332.246 262.472C332.149 262.371 332.017 262.311 331.878 262.305C330.566 261.923 329.209 261.716 327.843 261.688C326.454 261.929 325.079 262.246 323.724 262.638C319.679 263.562 315.455 263.328 311.537 261.962C309.707 261.321 307.208 260.053 305.259 261.021C303.805 261.736 303.757 263.96 304.462 265.249Z" fill="#D1435B"/>
<path d="M304.471 262.776C304.338 262.683 304.137 262.594 304.032 262.72C304 262.766 303.981 262.819 303.978 262.874C303.865 263.872 304.144 264.874 304.757 265.67C305.369 266.454 306.111 267.128 306.951 267.661C309.05 269.073 311.326 270.201 313.719 271.018C314.468 271.296 315.239 271.51 316.024 271.659C318.371 271.909 320.745 271.671 322.996 270.958C323.734 270.844 324.424 270.523 324.987 270.033C324.228 269.92 323.481 269.741 322.753 269.497C322.003 269.341 321.248 269.208 320.491 269.097C319.114 268.91 317.727 268.803 316.338 268.775C315.057 268.576 313.824 268.141 312.702 267.491C311.346 266.877 310.019 266.204 308.72 265.473C307.259 264.647 305.841 263.747 304.471 262.776Z" fill="#B53D50"/>
<path d="M302.172 255.415C302.268 255.58 302.406 255.717 302.571 255.812C302.743 255.874 302.927 255.891 303.107 255.861L305.13 255.703C304.863 255.09 304.612 254.466 304.329 253.859C304.047 253.253 304.087 253.237 304.508 252.753C304.661 252.522 304.785 252.273 304.877 252.012C305.069 251.7 305.293 251.408 305.545 251.142C305.798 250.807 306.024 250.453 306.221 250.082C306.49 249.682 306.619 249.204 306.586 248.723C306.553 248.242 306.361 247.786 306.039 247.427L304.316 244.521C304.222 244.323 304.075 244.156 303.892 244.037C303.757 243.986 303.613 243.962 303.469 243.969C303.325 243.975 303.183 244.011 303.054 244.073C301.891 244.58 300.836 245.304 299.945 246.206C298.881 247.157 296.07 249.505 297.265 250.853C297.941 251.615 299.139 252.14 299.913 252.857C300.75 253.631 301.507 254.488 302.172 255.415Z" fill="#B5745B"/>
<path d="M309.256 249.102C309.169 248.62 308.906 248.187 308.519 247.888C308.258 247.799 307.981 247.771 307.709 247.807C307.436 247.842 307.175 247.939 306.946 248.091C305.61 248.718 304.123 249.531 303.807 250.97C303.703 251.751 303.791 252.546 304.062 253.286L304.737 255.703C304.193 255.814 303.631 255.783 303.102 255.615C302.574 255.446 302.098 255.145 301.719 254.74C301.377 256.164 301.418 257.652 301.837 259.055C302.552 261.173 303.9 263.02 305.7 264.346C307.491 265.658 309.43 266.756 311.477 267.617C315.175 269.309 319.094 270.878 323.159 270.714C324.483 270.711 325.784 270.365 326.936 269.712C327.506 269.38 327.987 268.914 328.337 268.353C328.686 267.793 328.893 267.156 328.939 266.497C328.951 265.917 328.834 265.251 329.233 264.827C329.73 264.307 330.613 264.581 331.29 264.338C331.668 264.163 331.969 263.857 332.136 263.475C332.304 263.094 332.327 262.665 332.2 262.268C332.059 261.877 331.834 261.52 331.543 261.223C331.251 260.925 330.898 260.694 330.509 260.545C329.73 260.253 328.921 260.052 328.096 259.945C323.864 259.011 319.76 257.573 315.871 255.662C312.914 254.343 310.336 252.314 309.256 249.102Z" fill="#FFAB95"/>
<path d="M301.129 254.296C301.398 254.537 301.668 254.778 301.939 255.018C302.139 255.206 302.356 255.374 302.587 255.522C302.904 255.708 303.258 255.822 303.624 255.854C303.99 255.885 304.358 255.835 304.702 255.705C304.749 255.691 304.792 255.664 304.825 255.627C304.854 255.579 304.866 255.523 304.859 255.467C304.842 255.291 304.79 255.121 304.707 254.965C304.63 254.76 304.564 254.55 304.51 254.338L304.115 253.059C304.048 252.794 303.935 252.544 303.781 252.319C303.558 252.027 303.209 251.914 302.952 251.676C302.683 251.386 302.478 251.042 302.352 250.666C302.078 249.903 301.968 249.09 302.028 248.281C302.088 247.056 302.382 245.848 302.42 244.622C302.439 244.482 302.409 244.34 302.333 244.22C302.171 244.018 301.85 244.093 301.612 244.198C299.698 245.041 298.1 246.469 297.047 248.276C296.868 248.524 296.741 248.807 296.676 249.107C296.61 249.406 296.607 249.716 296.666 250.016C296.839 250.419 297.114 250.769 297.465 251.032C298.687 252.12 299.908 253.209 301.129 254.296Z" fill="#8C4D38"/>
<path d="M313.614 264.035C312.145 261.323 312.986 257.97 312.411 254.939C312.121 255.733 311.553 256.394 310.813 256.801C310.073 257.209 309.21 257.335 308.385 257.157C307.751 256.999 307.09 256.525 307.111 255.872C307.157 255.601 307.274 255.346 307.452 255.136C307.63 254.925 307.861 254.766 308.121 254.675C308.724 254.399 309.384 254.27 310.047 254.3C310.709 254.329 311.355 254.516 311.932 254.845C312.083 254.953 312.256 255.029 312.438 255.067C312.822 255.107 313.132 254.766 313.334 254.437C313.783 253.698 314.061 252.868 314.146 252.008C314.231 251.147 314.121 250.279 313.825 249.466C313.731 249.131 313.523 248.84 313.238 248.641C313.002 248.535 312.738 248.512 312.488 248.575C312.238 248.639 312.017 248.785 311.861 248.991C311.56 249.411 311.388 249.911 311.369 250.428C311.204 252.085 311.542 253.754 312.341 255.215C313.545 255.046 314.715 254.69 315.81 254.162C316.285 253.9 316.803 253.725 317.34 253.645C317.905 253.65 318.461 253.779 318.97 254.024" stroke="#444560" stroke-width="0.395233" stroke-linecap="round" stroke-linejoin="round"/>
<path d="M315.021 260.139C315.338 259.082 315.94 258.132 316.761 257.395" stroke="#444560" stroke-width="0.395233" stroke-linecap="round" stroke-linejoin="round"/>
<path d="M317.168 261.963C317.669 260.936 318.388 260.03 319.275 259.308" stroke="#444560" stroke-width="0.395233" stroke-linecap="round" stroke-linejoin="round"/>
<path d="M319.801 262.713C320.308 261.77 320.945 260.903 321.693 260.137" stroke="#444560" stroke-width="0.395233" stroke-linecap="round" stroke-linejoin="round"/>
<path d="M322.338 262.852C322.701 261.943 323.279 261.136 324.022 260.499" stroke="#444560" stroke-width="0.395233" stroke-linecap="round" stroke-linejoin="round"/>
<path d="M301.783 254.725C301.665 254.696 301.602 254.826 301.592 254.987C301.575 255.263 301.504 255.538 301.481 255.818C301.337 258.235 302.125 260.615 303.684 262.469C304.397 263.373 305.237 264.169 306.179 264.832C308.991 266.879 312.14 268.417 315.483 269.378C317.168 269.958 318.899 270.394 320.658 270.682C322.241 270.826 323.837 270.756 325.402 270.476C326.288 270.264 327.104 269.824 327.769 269.199C328.007 268.991 328.248 268.701 328.17 268.394C326.999 268.523 325.835 268.718 324.686 268.979C323.559 269.151 322.423 269.263 321.285 269.313C319.016 269.452 316.746 269.063 314.652 268.178C311.601 266.651 308.872 264.548 306.617 261.987C305.955 261.287 304.622 260.072 304.554 259.036C304.492 258.103 305.494 257.338 305.386 256.288C305.362 255.944 305.224 255.619 304.994 255.362C304.983 255.348 304.97 255.336 304.954 255.328C304.938 255.319 304.921 255.314 304.903 255.312C304.817 255.312 304.758 255.476 304.699 255.535C304.616 255.609 304.519 255.664 304.413 255.699C303.947 255.777 303.467 255.716 303.035 255.525C302.602 255.406 302.214 255.16 301.921 254.819C301.885 254.775 301.837 254.742 301.783 254.725Z" fill="#E18B96"/>
<path d="M154.243 129.348C153.676 127.809 152.796 126.406 151.659 125.225C150.522 124.044 149.152 123.112 147.636 122.488C146.586 122.259 145.587 121.839 144.688 121.25C144.112 120.693 143.666 120.015 143.38 119.266C142.852 118.286 142.569 117.194 142.554 116.081C142.558 115.526 142.737 114.986 143.065 114.537C143.393 114.088 143.853 113.754 144.381 113.581C144.913 113.538 145.448 113.603 145.955 113.771C146.462 113.939 146.93 114.207 147.331 114.559C148.383 112.159 147.899 109.406 147.579 106.804C147.26 104.202 147.217 101.292 148.904 99.2865C149.677 98.4414 150.617 97.7649 151.663 97.2992C154.075 96.2126 156.59 95.3726 159.17 94.792L170.251 91.8973C171.605 91.5444 173.291 91.2894 174.183 92.366C174.54 92.8795 174.76 93.4753 174.823 94.0973C176.456 103.163 177.31 112.353 177.375 121.564C177.39 121.885 177.371 122.207 177.316 122.524C177.19 123.002 176.982 123.454 176.702 123.86C176.006 124.99 175.264 126.091 174.475 127.163C174.02 127.646 173.617 128.174 173.271 128.74C173.143 129.225 173.147 129.734 173.282 130.217C173.643 132.422 174.304 134.567 175.246 136.593C174.037 137.848 172.585 138.843 170.979 139.519C169.373 140.195 167.647 140.537 165.905 140.525C163.448 140.573 158.57 140.247 156.725 138.339C154.936 136.491 155.255 131.784 154.243 129.348Z" fill="#FFCCB6"/>
<path d="M68.8045 152.134C69.9011 135.894 68.721 143.041 69.1462 139.442C69.3151 138.836 69.3324 138.197 69.1965 137.583C69.0606 136.968 68.7757 136.397 68.3669 135.918C67.4707 134.76 66.3274 133.815 65.0202 133.154C63.1883 132.069 61.6447 130.559 60.5201 128.752C59.9671 127.844 59.631 126.821 59.5381 125.763C59.4453 124.704 59.598 123.638 59.9846 122.648C60.1729 122.124 60.5027 121.663 60.9374 121.315C61.3721 120.967 61.8947 120.746 62.4473 120.677C64.4101 120.638 65.3364 123.192 67.1233 124.017C67.3198 122.135 67.6348 120.268 68.0663 118.426C68.8267 115.179 72.3081 113.681 75.3497 112.313L88.4103 106.443C90.1771 105.648 92.2268 104.851 93.9769 105.678C94.9181 106.211 95.7025 106.982 96.2515 107.914C97.1045 109.039 97.7183 110.327 98.0551 111.699C97.2588 113.875 96.7814 116.154 96.6378 118.467C96.0546 123.248 95.2038 127.993 94.0894 132.68C93.2677 136.139 93.3167 139.737 90.7739 142.222C90.5512 142.445 88.8968 143.53 89.0515 144.065C89.1362 144.353 88.8968 143.53 88.8845 143.831C88.7684 146.939 89.7511 149.99 91.6601 152.446C91.0066 153.615 89.5258 153.983 88.2087 154.193C83.6564 154.931 79.0249 155.047 74.4413 154.539C72.3598 154.37 70.3232 153.843 68.4215 152.98C67.6811 152.611 68.7443 152.945 68.8045 152.134Z" fill="#F2B06D"/>
<path d="M88.6103 143.349C88.2971 143.489 87.993 143.648 87.6996 143.826L86.2356 144.55C86.0898 144.622 78.8286 144.526 81.5596 144.288C80.0885 144.488 78.5908 144.317 77.2025 143.791C75.8142 143.265 74.5791 142.401 73.6093 141.277C71.8747 139.265 69.6703 136.223 69.3987 134.421C68.9342 131.296 68.8968 128.123 69.2873 124.989C69.6302 122.222 73.3221 118.161 75.4285 116.14C76.5307 115.081 78.0036 114.477 79.1225 113.436C79.3916 113.216 79.5931 112.925 79.7037 112.596C79.7469 112.332 79.7227 112.06 79.6334 111.807C79.5441 111.554 79.3925 111.328 79.1927 111.149C77.1831 109.075 73.9333 110.233 71.956 111.747C69.9913 113.217 68.4309 115.16 67.4203 117.396C66.7768 118.955 66.4083 120.725 65.1713 121.87C64.1037 121.551 63.2174 120.436 62.1275 120.668C61.0832 120.891 60.7091 122.165 60.5766 123.229C60.2641 124.928 60.3684 126.677 60.8806 128.327C61.7478 130.622 63.822 132.124 65.4864 133.813C66.3923 134.65 67.1184 135.662 67.6207 136.788C68.3577 138.693 69.402 140.292 69.3185 142.296C69.2239 144.509 69.0747 148.166 68.9845 150.379C68.9522 151.141 67.8133 150.836 68.1484 151.532C68.4414 152.251 68.9412 152.866 69.5846 153.301C73.0753 155.393 77.0771 156.478 81.1466 156.436C83.0986 156.481 85.0329 156.056 86.7867 155.198C87.1051 155.198 87.6885 154.587 87.9101 154.386C88.2973 154.039 88.6422 153.648 88.9377 153.22C89.3599 152.337 89.707 151.42 89.9753 150.479C90.0391 150.363 90.0796 150.237 90.0944 150.106C90.0894 149.963 90.0541 149.822 89.9909 149.694C89.5609 148.768 89.2835 147.778 89.1692 146.763C89.0724 145.641 89.0267 144.396 88.823 143.302C88.7506 143.31 88.6793 143.326 88.6103 143.349Z" fill="#D8854C"/>
<path d="M92.0372 106.636C92.1853 109.196 94.1259 111.249 95.178 113.589C96.514 116.561 95.9573 120.909 95.8081 124.166C96.0942 121.939 97.7709 119.014 98.6026 116.929C99.9816 113.439 100.222 109.602 99.2884 105.968C99.122 105.02 98.7597 104.118 98.2246 103.318C97.6896 102.518 96.9936 101.839 96.1811 101.324C95.4964 101.033 94.7949 100.783 94.0802 100.576C90.9996 99.4523 88.9589 96.5421 86.2 94.7708C83.8933 93.39 81.2804 92.602 78.5949 92.4773C73.1803 92.0839 67.7813 93.4266 63.1819 96.3105C61.6936 97.2176 60.3503 98.3436 59.1972 99.6505C58.0065 101.109 57.0409 102.738 56.3326 104.482C52.7911 112.702 52.9693 122.896 58.4068 130.004L58.4302 128.309C60.177 134.118 65.806 137.847 68.8075 143.116C68.4646 140.128 69.4867 136.678 67.5606 134.369C66.6377 133.488 65.6151 132.718 64.5134 132.075C62.9044 130.867 61.762 129.14 61.2792 127.187C60.9647 126.156 61.044 125.045 61.5018 124.069C61.7448 123.594 62.1502 123.222 62.6442 123.021C63.1383 122.82 63.6882 122.803 64.1939 122.973C64.6347 123.208 65.0156 123.542 65.3072 123.948C66.2505 125.086 67.1206 126.283 67.9124 127.531C67.9281 124.094 68.5367 120.686 69.7116 117.456C70.0211 116.608 71.356 116.325 72.1754 115.945C75.5811 114.362 79.2506 113.439 82.7732 112.139C86.2958 110.838 89.6057 109.498 92.0372 106.636Z" fill="#5A489B"/>
<path d="M57.7261 161.454C54.749 163.592 51.9279 165.875 50.2768 169.188C49.4877 170.889 48.9377 172.691 48.6424 174.542C47.9422 178.629 47.5581 182.763 47.4935 186.909C47.3851 190.338 47.3632 193.769 47.4278 197.201C47.4868 200.364 47.1606 204.097 47.8787 207.184C48.8061 211.175 54.1935 210.881 57.3698 210.79C71.1551 210.39 84.9504 209.582 98.7268 210.212C103.947 210.45 109.509 210.821 114.061 208.252C115.372 207.611 116.414 206.527 117.004 205.192C117.348 203.757 117.373 202.264 117.077 200.819C116.699 196.772 117.569 192.716 117.587 188.651C117.62 181.52 115.151 174.001 112.885 167.317C112.093 164.509 110.554 161.97 108.432 159.969C106.272 158.147 103.466 157.327 100.956 156.028C98.9083 154.97 97.1915 153.29 95.1553 152.279C93.6957 151.554 92.5211 151.938 91.0359 152.107C89.2379 152.311 87.4666 152.441 85.6585 152.693C82.0691 153.202 78.4341 151.899 74.8213 152.199C72.9699 152.351 71.0828 152.92 69.2903 152.432C67.7739 153.457 66.3342 154.591 64.9828 155.825C62.7192 157.893 60.2924 159.776 57.7261 161.454Z" fill="#92B7F0"/>
<path d="M64.373 125.818C64.1848 125.547 63.9402 125.319 63.656 125.15C63.5124 125.069 63.3466 125.035 63.1825 125.054C63.0184 125.072 62.8646 125.143 62.7431 125.255C62.6354 125.391 62.5658 125.553 62.5416 125.725C62.3869 126.5 62.519 127.304 62.9134 127.989C63.0036 128.183 63.1404 128.352 63.3115 128.48C63.4826 128.609 63.6828 128.693 63.8943 128.725C64.1572 128.697 64.4177 128.649 64.6736 128.583C64.9353 128.553 65.2592 128.671 65.2949 128.932C65.5088 128.647 65.6354 128.306 65.6593 127.95C65.6832 127.594 65.6034 127.239 65.4296 126.928C65.0687 126.311 64.5656 125.788 63.9622 125.404" fill="#A5452B"/>
<path d="M65.0258 130.064C65.2682 130.02 65.4957 129.916 65.6882 129.762C65.8701 129.636 66.0478 129.506 66.2215 129.37C66.2715 129.318 66.3317 129.278 66.3982 129.251C66.4647 129.224 66.5362 129.212 66.6079 129.214C66.7263 129.254 66.8253 129.337 66.8851 129.447C67.1154 129.7 67.2484 130.027 67.2603 130.37C67.2546 130.448 67.2331 130.525 67.1971 130.595C67.1611 130.666 67.1114 130.728 67.0508 130.778C66.9902 130.829 66.9201 130.867 66.8446 130.89C66.769 130.913 66.6897 130.92 66.6112 130.912C66.5093 130.873 66.4043 130.843 66.2972 130.823C65.9822 130.808 65.8074 131.244 65.4934 131.276C65.2385 131.303 65.0481 131.053 64.92 130.83C64.7277 130.529 64.5726 130.206 64.458 129.867C64.615 130.003 64.8183 130.074 65.0258 130.064Z" fill="#A5452B"/>
<path d="M65.141 115.959C65.1856 115.103 66.2755 118.726 66.7754 121.392C67.0326 122.763 68.3886 126.366 67.7774 127.417C67.6874 127.388 67.6041 127.342 67.5324 127.281C67.4607 127.219 67.402 127.144 67.3599 127.06C66.8149 126.101 66.1997 125.184 65.5196 124.316C65.294 123.966 64.9979 123.666 64.6502 123.436C64.3026 123.206 63.9108 123.051 63.5 122.98C62.1205 122.891 61.2811 124.286 61.1519 125.468C60.8836 127.931 62.4301 129.952 64.257 131.425C64.3572 131.505 64.4585 131.584 64.561 131.661C65.3169 132.218 66.1519 132.677 66.88 133.278C67.5515 133.877 68.108 134.594 68.5222 135.393C69.1624 136.552 69.3917 142.126 69.2804 143.426C69.1757 144.644 68.7872 141.516 68.7883 142.746C68.936 142.984 69.1005 143.211 69.2804 143.426C69.8159 143.685 68.6436 142.869 68.5946 142.831C67.9821 142.344 67.4778 141.734 67.1138 141.041C66.4246 139.833 65.5276 138.756 64.4641 137.86C63.3315 136.982 62.334 135.942 61.5038 134.774C60.6372 133.526 59.9082 132.188 59.3294 130.784C59.2181 130.513 58.8329 128.918 58.6002 128.85C58.1871 128.731 57.9879 129.827 57.8921 130.074C57.451 129.673 57.1137 129.171 56.909 128.61C55.3451 125.127 54.3246 121.425 53.883 117.633C53.3764 113.275 54.6423 108.509 56.1676 104.463C56.7031 102.832 57.5333 101.314 58.6169 99.9822C59.3825 99.1835 60.2266 98.464 61.1364 97.8346C63.0623 96.2271 65.191 94.8796 67.4679 93.8266C68.5274 93.3448 69.617 92.9324 70.73 92.5919C72.734 92.0731 77.0426 92.6364 75.4961 95.7582C74.7809 96.8918 73.6698 97.7191 72.3788 98.0795C72.8739 98.4237 73.4688 98.5947 74.0711 98.566C72.243 100.984 70.3655 103.364 68.4387 105.705C68.4387 105.705 65.0353 112.655 65.141 115.959Z" fill="#042759"/>
<path d="M112.602 184.013C111.826 179.923 109.605 176.248 106.345 173.659C105.918 173.242 105.404 172.923 104.84 172.725C104.276 172.527 103.676 172.456 103.081 172.515C105.382 175.815 107.215 179.418 108.53 183.221C109.049 184.722 111.048 184.341 112.602 184.013Z" fill="#407BD2"/>
<path d="M87.9679 158.632C88.0269 158.771 88.0793 158.898 88.1171 159.008C88.1783 159.176 88.2596 159.365 88.4288 159.423C88.5712 159.453 88.7195 159.43 88.8463 159.359C91.4646 158.264 93.9252 156.826 96.1632 155.081C96.4469 154.887 96.6888 154.637 96.8746 154.348C97.5426 153.15 95.8002 152.107 95.1701 151.289C94.2794 150.134 93.254 148.792 91.643 148.792C90.595 149.185 89.5978 149.703 88.6727 150.333C88.0648 150.714 86.2768 151.453 85.9628 152.083C85.3293 153.351 87.2565 156.953 87.9679 158.632Z" fill="#DAE8FA"/>
<path d="M169.932 110.881C169.892 110.791 169.851 110.701 169.807 110.613C169.743 110.481 169.671 110.352 169.601 110.223C169.39 109.835 169.194 109.435 168.946 109.07L168.561 108.501L168.369 108.217C168.346 108.184 168.223 107.956 168.192 107.956C168.148 107.877 168.082 107.812 168.003 107.769C167.953 108.042 167.969 108.324 168.05 108.589C168.253 109.545 168.38 110.516 168.43 111.492C168.459 112.048 168.462 112.615 168.466 113.177C168.515 113.752 168.515 114.329 168.466 114.903C169.04 114.55 169.524 114.068 169.878 113.494C170.004 113.324 170.121 113.148 170.229 112.966C170.272 112.885 170.326 112.811 170.387 112.743L170.554 112.565C170.592 112.513 170.635 112.465 170.683 112.421C170.707 112.404 170.572 112.182 170.559 112.158C170.502 112.046 170.447 111.935 170.385 111.824C170.274 111.601 170.153 111.378 170.051 111.156L169.932 110.881Z" fill="#FCE5DE"/>
<path d="M173.365 128.055C172.232 128.504 171.065 128.862 169.875 129.125C168.684 129.411 167.468 129.577 166.244 129.621C165.08 129.554 163.971 129.105 163.088 128.343C162.006 127.66 160.941 126.95 159.892 126.215C158.458 125.213 156.474 124.185 155.738 122.526C155.518 121.976 155.364 121.402 155.28 120.816C154.319 115.317 153.796 109.751 153.715 104.17C153.662 103.329 153.722 102.485 153.895 101.661C154.234 100.564 154.801 99.5508 155.559 98.6886C156.221 97.8579 156.934 97.0685 157.693 96.325C158.214 95.814 159.007 95.1114 158.91 94.2887C158.827 93.5906 158.282 93.6107 157.685 93.5205C156.204 93.2731 154.684 93.4474 153.298 94.0237C151.873 94.6616 150.593 95.5843 149.538 96.735C148.484 97.8857 147.675 99.2401 147.163 100.715C146.432 102.936 146.111 105.272 146.217 107.609C146.247 108.808 146.35 110.005 146.49 111.195C146.56 111.793 146.639 112.388 146.722 112.984C146.861 113.554 146.935 114.138 146.945 114.725C146.436 114.614 146.117 113.98 145.591 113.814C145.196 113.728 144.786 113.748 144.401 113.872C144.108 113.903 143.825 113.992 143.567 114.134C143.309 114.275 143.082 114.467 142.899 114.698C142.717 114.929 142.582 115.194 142.503 115.477C142.424 115.761 142.403 116.057 142.44 116.349C142.257 117.48 142.456 118.64 143.007 119.645C143.557 120.65 144.427 121.443 145.479 121.897C146.791 122.514 148.276 122.722 149.551 123.415C151.758 124.615 152.989 127.077 153.584 129.518C154.178 131.958 154.275 134.502 154.92 136.929C154.992 137.327 155.175 137.695 155.447 137.994C155.759 138.234 156.128 138.388 156.518 138.439C161.405 139.506 167.267 139.804 172.105 138.266C177.619 136.519 174.145 132.381 173.365 128.055Z" fill="#F7A98D"/>
<path d="M145.497 114.113L148.272 117.528C148.526 117.902 148.873 118.201 149.28 118.397C149.486 118.487 149.718 118.495 149.93 118.419C150.142 118.343 150.316 118.189 150.418 117.988C149.545 114.591 149.045 111.109 148.927 107.604C148.862 106.473 148.918 105.338 149.094 104.219C149.427 102.42 150.269 100.754 151.52 99.419C154.044 96.7381 158.371 96.5432 162.045 96.2883C165.719 96.0333 169.466 96.1513 173.014 95.1649C175.878 94.4565 178.389 92.7364 180.084 90.3219C180.191 90.1401 180.244 89.9313 180.237 89.7202C180.229 89.5091 180.161 89.3046 180.041 89.131C179.921 88.9573 179.753 88.8218 179.558 88.7404C179.364 88.659 179.149 88.6353 178.941 88.672C177.637 88.8898 176.321 89.0274 175 89.0839L177.292 86.1892C177.403 86.0523 177.479 85.8916 177.517 85.7199C177.554 85.5482 177.55 85.3701 177.506 85.2C177.463 85.0298 177.38 84.8722 177.264 84.7397C177.149 84.6072 177.004 84.5035 176.842 84.4368C174.457 83.5105 172.338 81.8762 169.952 80.8898C166.52 79.5516 162.742 79.3864 159.206 80.4199C156.136 81.2727 153.318 82.8577 150.994 85.0391C150.249 83.4188 149.862 81.6568 149.86 79.8733C144.937 83.472 141.186 88.4447 139.078 94.1674C137.84 93.899 136.697 93.7488 135.459 93.4804C136.532 94.3153 137.27 95.5076 137.539 96.8405C137.507 97.7869 137.288 98.7177 136.895 99.5793C136.023 102.399 136.118 105.43 137.168 108.189C138.217 110.949 140.159 113.277 142.685 114.805C143.498 114.221 144.505 113.973 145.497 114.113Z" fill="#FF9400"/>
<path d="M150.349 117.994C150.329 118.071 150.291 118.141 150.238 118.201C150.176 118.268 150.1 118.32 150.015 118.354C149.838 118.423 149.649 118.453 149.459 118.44C149.27 118.428 149.086 118.374 148.92 118.282C148.589 118.095 148.301 117.843 148.072 117.539C147.235 116.513 146.667 115.188 145.512 114.548C145.255 114.443 144.981 114.391 144.704 114.395C144.427 114.398 144.153 114.456 143.9 114.567C143.497 114.668 142.998 114.591 142.728 114.945C141.091 114.023 139.72 112.693 138.748 111.085C137.602 109.538 136.684 107.835 136.021 106.028C135.55 104.538 135.435 102.959 135.687 101.417C136.14 99.9451 136.494 98.4443 136.748 96.925C136.803 96.3054 136.721 95.6812 136.507 95.097C136.293 94.5127 135.954 93.9828 135.512 93.5449C135.604 93.625 136.619 93.3612 136.831 93.3846C137.354 93.5442 137.914 93.5285 138.428 93.34C138.732 93.1205 138.97 92.8222 139.118 92.4772C141.79 87.544 145.096 82.9081 149.782 79.7173C150.095 80.815 149.51 81.6912 149.171 82.7155C148.794 83.857 148.455 85.0101 148.155 86.1746C147.565 88.4711 147.129 90.8042 146.849 93.1586C146.789 93.6551 146.789 94.2719 147.218 94.5257C148.185 93.97 149.103 93.3324 149.961 92.6197C149.614 96.4707 147.151 100.156 147.957 103.938L148.788 102.936C148.256 103.579 148.573 105.102 148.636 105.851C148.747 107.187 148.898 108.499 148.97 109.842C149.234 112.394 149.689 114.922 150.332 117.406C150.382 117.598 150.387 117.799 150.349 117.994Z" fill="#E48B19"/>
<path d="M174.979 134.251C173.165 134.797 171.354 136.396 169.656 136.978C167.351 137.858 164.929 138.393 162.468 138.565C161.113 138.622 159.758 138.45 158.46 138.056C157.822 137.95 157.21 137.719 156.66 137.378C156.145 137.118 155.596 136.931 155.029 136.821C154.921 136.789 154.807 136.779 154.695 136.794C154.609 136.817 154.527 136.855 154.453 136.905C153.347 137.549 152.206 138.111 151.066 138.702C149.31 139.612 147.579 140.572 145.901 141.619C143.462 143.011 141.28 144.813 139.451 146.945C137.932 149.02 136.745 151.319 135.933 153.76C130.685 167.821 129.351 183.046 129.331 198.055C129.331 200.827 129.499 203.921 131.504 205.835C131.983 206.329 132.607 206.657 133.286 206.77C133.861 206.806 134.438 206.723 134.98 206.527C137.2 205.861 139.313 204.881 141.256 203.617C141.585 203.339 142.002 203.188 142.433 203.19C143.139 203.292 143.421 204.15 143.489 204.86C143.732 207.438 143.253 210.457 145.128 212.243C155.525 214.435 166.232 214.725 176.732 213.098C177.854 212.983 178.952 212.702 179.99 212.263C180.953 211.75 181.843 211.109 182.635 210.358C185.691 207.708 188.948 204.707 189.529 200.703C189.677 199.681 189.824 198.383 190.812 198.083C191.213 197.997 191.63 198.023 192.018 198.157C196.154 199.226 199.916 201.409 202.896 204.47C206.176 199.809 209.576 194.805 209.835 189.106C210.007 185.303 208.742 181.666 207.902 178.009C207.201 174.395 207.08 170.693 207.543 167.041C207.881 164.235 207.527 161.389 206.511 158.752C205.455 155.923 204.205 153.17 202.77 150.513C201.592 148.153 200.044 145.997 198.184 144.127C196.265 142.449 194.112 141.062 191.791 140.008C187.044 137.648 182.101 135.701 177.02 134.189C176.349 134.005 175.638 134.026 174.979 134.251Z" fill="#68697F"/>
<path d="M157.726 171.026L158.847 167.539C159.09 166.786 159.524 165.883 160.317 165.885C161.162 165.885 161.084 167.11 160.956 167.676C160.828 168.243 160.576 168.775 160.406 169.332C160.147 170.346 160.025 171.39 160.042 172.436C160.018 173.319 160.104 173.937 161.067 173.491C161.767 173.101 162.377 172.567 162.858 171.926L168.235 165.707C168.513 165.346 168.852 165.036 169.237 164.792C169.431 164.672 169.652 164.604 169.88 164.595C170.108 164.585 170.334 164.634 170.537 164.736C171.666 165.416 170.203 167.196 169.713 167.82C168.599 169.237 167.399 170.584 166.27 171.997C165.979 172.324 165.742 172.696 165.566 173.097C165.482 173.305 165.446 173.529 165.461 173.753C165.475 173.976 165.54 174.194 165.651 174.389C166.977 173.336 168.2 172.16 169.303 170.875L173.005 167.262C173.341 166.894 173.739 166.586 174.179 166.351C174.401 166.236 174.648 166.179 174.898 166.186C175.148 166.192 175.392 166.261 175.608 166.387C177.055 167.371 173.97 169.601 173.326 170.26L170.399 173.259C169.432 173.981 168.688 174.963 168.254 176.091C168.22 176.175 168.205 176.266 168.211 176.357C168.216 176.447 168.242 176.536 168.286 176.615C168.787 177.271 171.084 174.93 171.507 174.606C172.765 173.641 174.059 172.721 175.387 171.846C176.536 171.092 178.144 171.651 177.025 173.038C176.125 174.037 175.117 174.933 174.019 175.71C173.388 176.208 170.628 178.086 170.868 179.013C170.942 179.296 171.305 179.375 171.597 179.372C173.077 179.209 174.521 178.816 175.879 178.207C176.05 178.135 176.237 178.108 176.421 178.132C177.835 178.43 175.701 180.311 175.261 180.526C172.661 181.798 169.927 182.775 167.11 183.437C166.094 183.625 165.1 183.917 164.145 184.309C162.615 185.026 158.706 189.358 157.047 187.364C156.184 186.327 155.463 185.179 154.902 183.952C154.663 183.505 154.516 183.016 154.468 182.511C154.42 182.007 154.474 181.499 154.625 181.015C154.847 179.995 155.166 179.001 155.485 178.009L157.726 171.026Z" fill="#FFCCB6"/>
<path d="M140.043 177.453C139.813 174.931 139.586 172.41 139.552 169.871C139.413 167.563 139.76 165.251 140.569 163.085C140.91 167.304 141.498 171.499 142.331 175.649C142.481 176.646 142.788 177.613 143.242 178.514C143.585 179.119 144.051 179.647 144.418 180.238C144.998 181.285 145.423 182.41 145.681 183.578C145.803 183.861 145.861 184.168 145.85 184.475C145.84 184.783 145.761 185.085 145.621 185.359C145.38 185.629 145.073 185.831 144.73 185.944C144.211 186.23 143.635 186.395 143.044 186.427C142.452 186.458 141.861 186.356 141.315 186.127C140.621 185.876 139.049 185.86 139.128 184.822C138.605 184.86 138.09 184.969 137.597 185.146C137.53 184.901 137.498 184.647 137.502 184.393C137.494 184.274 137.528 184.156 137.598 184.059C137.673 183.988 137.767 183.941 137.868 183.923C138.428 183.771 139.008 183.711 139.586 183.744C139.721 183.767 139.86 183.751 139.987 183.699C140.103 183.622 140.189 183.509 140.233 183.377C140.922 181.749 140.199 179.155 140.043 177.453Z" fill="#50516A"/>
<path d="M198.517 187.163C197.061 188.822 195.449 190.337 193.703 191.687L197.22 192.147C196.818 192.095 196.248 192.758 195.966 192.98C195.409 193.416 194.771 193.725 194.209 194.171C193.722 194.504 193.343 194.973 193.12 195.52C192.978 196.092 193.037 196.696 193.287 197.231C193.51 197.773 193.813 198.277 194.021 198.823C193.7 198.584 193.319 198.436 192.921 198.397C192.522 198.358 192.12 198.428 191.759 198.6C191.248 198.893 190.805 199.292 190.459 199.769C189.487 200.99 188.747 202.379 188.276 203.867C186.583 209.245 183.581 209.739 178.432 209.271C174.009 208.87 169.422 210.095 165.124 211.006C164.411 211.156 161.187 212.461 160.599 212.019C159.181 210.955 161.662 209.604 162.491 209.29C164.205 208.73 165.807 207.871 167.224 206.755C167.929 206.192 168.499 205.478 168.893 204.667C169.287 203.855 169.496 202.966 169.503 202.064C168.919 203.089 167.14 202.038 167.276 200.867C167.413 199.696 168.542 198.935 169.56 198.34C173.258 196.18 177.059 194.058 180.039 190.982C185.235 185.619 185.854 176.446 184.715 169.354C184.3 166.782 183.291 163.609 184.358 161.073C184.425 160.89 184.527 160.721 184.66 160.578C184.792 160.435 184.951 160.319 185.129 160.238C185.306 160.158 185.498 160.113 185.693 160.107C185.888 160.101 186.082 160.134 186.264 160.205C186.484 160.37 186.668 160.578 186.805 160.817C186.942 161.055 187.03 161.319 187.063 161.592C189.455 170.935 190.968 180.482 191.584 190.107C192.752 189.609 193.819 188.865 194.971 188.313C195.679 187.979 198.111 187.626 198.517 187.163Z" fill="#50516A"/>
<path d="M166.332 183.693C168.206 183.359 170.051 182.875 171.847 182.245C173.499 181.623 175.521 180.778 176.585 179.295C176.807 178.981 177.046 178.366 176.578 178.146C176.252 178.071 175.91 178.123 175.622 178.292C174.806 178.667 173.957 178.962 173.084 179.174C172.633 179.337 172.151 179.398 171.674 179.353C170.816 179.163 171.218 178.508 171.611 178.031C172.111 177.425 172.66 176.862 173.255 176.349C174.276 175.465 175.421 174.72 176.428 173.8C176.772 173.521 177.053 173.171 177.253 172.775C177.374 172.575 177.413 172.335 177.36 172.106C177.308 171.878 177.169 171.678 176.972 171.551C176.34 171.251 175.577 171.788 175.052 172.09C172.468 173.575 170.327 175.802 167.592 176.988C167.023 177.234 166.434 177.434 165.878 177.705C165.465 177.908 165.098 178.198 164.683 178.398C164.349 178.513 163.999 178.572 163.646 178.571C162.763 178.629 161.893 178.808 161.059 179.102C159.714 179.709 158.605 180.742 157.904 182.04C156.938 183.695 155.132 186.729 157.655 187.796C158.178 188.007 158.751 188.062 159.305 187.953C159.843 187.873 160.353 187.665 160.794 187.347C161.52 186.506 162.293 185.706 163.109 184.952C164.067 184.281 165.173 183.849 166.332 183.693Z" fill="#F7A98D"/>
<path d="M130.846 201.891C130.778 201.794 130.694 201.709 130.598 201.639C130.311 201.462 130.041 201.259 129.79 201.033C129.489 200.623 129.353 200.116 129.408 199.611C129.382 199.218 129.369 198.824 129.365 198.43C129.357 197.675 129.379 196.918 129.392 196.163C129.548 194.531 130.219 192.99 131.308 191.763C132.332 190.412 133.489 189.166 134.759 188.043C135.534 187.343 136.349 186.688 137.198 186.081C137.496 185.868 138.135 185.238 138.496 185.207C139.019 185.16 138.854 185.429 139.295 185.577C141.704 186.362 144.05 185.435 146.378 184.525L151.047 182.701C151.575 182.493 152.082 182.242 152.617 182.054C153.231 181.838 153.878 181.772 154.504 181.608C154.355 181.648 154.528 182.406 154.563 182.53C154.641 182.878 154.772 183.212 154.953 183.52C155.363 184.163 155.043 184.799 154.766 185.425C154.408 186.233 154.071 187.05 153.756 187.874C153.477 188.682 153.139 189.467 152.743 190.223C152.381 190.834 151.968 191.413 151.507 191.953C150.768 192.866 149.97 193.73 149.118 194.539C148.331 195.412 147.593 196.327 146.907 197.281C145.424 199.246 143.57 200.902 141.451 202.156C140.602 202.567 139.723 202.912 138.822 203.189C138.038 203.478 137.226 203.684 136.399 203.804C135.862 203.852 135.322 203.865 134.782 203.843C133.604 203.684 132.485 203.231 131.528 202.527C131.375 202.434 131.23 202.326 131.097 202.206C131.003 202.11 130.919 202.004 130.846 201.891Z" fill="#75768A"/>
<path d="M154.83 184.528C154.373 186.801 153.329 188.916 151.802 190.662C148.458 194.975 144.407 198.69 139.821 201.648C138.66 202.479 137.352 203.081 135.966 203.424C135.272 203.589 134.549 203.588 133.855 203.421C133.161 203.254 132.517 202.925 131.974 202.462C131.668 202.462 131.175 201.369 131.069 201.134C130.853 200.626 130.682 200.101 130.558 199.563C130.397 198.929 130.236 198.295 130.073 197.662C129.872 197.149 129.74 196.612 129.68 196.064C129.567 196.03 129.455 195.991 129.346 195.945C129.346 198.617 128.972 201.428 130.135 203.944C130.794 205.374 131.934 206.873 133.667 206.845C135.125 206.89 136.58 206.693 137.974 206.261C139.376 205.7 140.716 204.995 141.972 204.157C146.971 201.192 151.624 197.677 155.843 193.678C157.958 191.477 159.925 189.138 161.733 186.679C161.099 186.636 160.472 186.518 159.866 186.324C159.206 186.183 158.559 185.986 157.932 185.736C156.784 185.17 155.751 184.394 154.887 183.449C154.896 183.809 154.877 184.17 154.83 184.528Z" fill="#50516A"/>
<path d="M166.76 170.766C166.24 171.374 165.786 172.037 165.406 172.742C165.252 172.988 165.164 173.27 165.152 173.56C165.14 173.85 165.203 174.138 165.336 174.396C165.354 174.428 165.379 174.455 165.407 174.477C165.436 174.499 165.469 174.515 165.504 174.523C165.616 174.54 165.71 174.432 165.727 174.322C165.734 174.209 165.721 174.096 165.688 173.988C165.663 173.562 165.731 173.137 165.888 172.74C166.044 172.344 166.284 171.986 166.592 171.692C167.772 170.234 169.074 168.871 170.165 167.345C170.534 166.879 170.807 166.344 170.968 165.771C171.004 165.61 171.133 165.176 170.904 165.199C170.713 165.218 170.482 165.71 170.388 165.847C169.645 166.929 168.877 167.994 168.084 169.043C167.651 169.624 167.209 170.198 166.76 170.766Z" fill="#F7A98D"/>
<path d="M173.569 169.266L171.035 171.798C170.077 172.68 169.23 173.675 168.512 174.762C168.157 175.288 167.952 175.902 167.921 176.536C167.921 176.737 168.032 176.999 168.226 176.965C168.42 176.93 168.435 176.668 168.432 176.472C168.442 175.896 168.63 175.337 168.97 174.872C169.309 174.411 169.695 173.986 170.121 173.605L174.74 169.174C175.127 168.832 175.465 168.437 175.742 168.001C175.84 167.831 176.307 166.728 175.863 166.714C175.641 166.707 174.958 167.81 174.789 168C174.397 168.437 173.982 168.852 173.569 169.266Z" fill="#F7A98D"/>
<path d="M159.986 169.088C159.81 169.699 159.682 170.322 159.603 170.953C159.508 171.917 159.642 172.891 159.994 173.794C160.085 174.029 160.24 174.292 160.49 174.303C160.582 174.295 160.671 174.268 160.752 174.223C160.833 174.178 160.903 174.117 160.959 174.043C161.171 173.823 161.364 173.585 161.537 173.332C161.273 173.411 160.998 173.449 160.723 173.443C160.636 173.447 160.549 173.428 160.472 173.387C160.401 173.334 160.347 173.261 160.315 173.178C160.111 172.596 160.065 171.97 160.182 171.365C160.231 170.658 160.351 169.957 160.538 169.274C160.972 168.395 161.14 167.409 161.021 166.436C161.017 166.386 161.001 166.337 160.976 166.293C160.95 166.25 160.916 166.212 160.874 166.183C160.632 166.06 160.073 168.768 159.986 169.088Z" fill="#F7A98D"/>
<path d="M144.117 116.378C144.076 116.633 144.058 116.89 144.061 117.148C144.042 117.328 144.067 117.511 144.135 117.679C144.203 117.847 144.311 117.996 144.451 118.113C144.659 118.241 144.925 118.235 145.145 118.342C145.749 118.632 145.72 119.542 146.211 119.997C146.465 120.193 146.764 120.323 147.08 120.375L147.781 120.549C147.763 120.143 147.684 119.742 147.546 119.36C147.475 119.169 147.363 118.996 147.219 118.853C147.075 118.71 146.901 118.6 146.71 118.53C146.612 118.512 146.518 118.476 146.433 118.425C146.274 118.301 146.285 118.065 146.274 117.868C146.238 117.148 144.339 114.98 144.117 116.378Z" fill="#EA9E86"/>
<path d="M224.143 132.332C224.053 132.115 223.944 131.906 223.817 131.708C222.538 129.713 220.588 128.677 219.633 126.252C218.748 123.809 218.335 121.219 218.415 118.622C218.44 113.823 219.354 104.24 225.288 102.812C227.455 102.289 229.924 103.242 231.877 102.167C232.454 101.849 232.936 101.374 233.532 101.093C235.222 100.295 237.177 101.263 238.789 102.207C240.331 102.98 241.706 104.048 242.837 105.35C244.929 108.106 244.547 111.918 244.921 115.36C244.925 115.555 244.985 115.746 245.093 115.908C245.46 116.363 246.159 115.961 246.707 115.757C248.6 115.048 250.372 117.538 249.949 119.519C249.526 121.5 247.892 122.937 246.561 124.46C243.48 128.051 241.623 132.529 241.26 137.247C241.298 138.11 241.243 138.975 241.096 139.826C240.808 140.769 240.36 141.654 239.771 142.444L236.274 147.731C236.144 147.929 235.972 148.148 235.736 148.145C235.575 148.124 235.427 148.048 235.317 147.929C233.888 146.693 232.48 145.553 230.975 144.385C228.894 142.831 226.9 141.163 225.003 139.389C223.796 138.217 223.457 138.004 223.926 136.383C224.461 135.098 224.538 133.667 224.143 132.332Z" fill="#B5745B"/>
<path d="M233.92 110.384C234.206 110.688 235.013 110.495 235.488 110.651C236.325 110.914 237.04 111.467 237.505 112.21C237.523 112.248 237.551 112.28 237.585 112.303C237.628 112.322 237.676 112.326 237.722 112.314C239.058 112.064 237.818 110.755 237.324 110.379C236.537 109.769 235.562 109.454 234.567 109.488C234.177 109.515 233.49 109.924 233.92 110.384Z" fill="#444560"/>
<path d="M232.242 114.918C232.718 114.693 233.238 114.579 233.765 114.584C234.028 114.592 234.281 114.687 234.484 114.854C234.688 115.021 234.83 115.25 234.889 115.507C234.888 115.575 234.906 115.642 234.943 115.699C235.026 115.799 235.193 115.747 235.287 115.657C235.405 115.524 235.476 115.355 235.489 115.177C235.501 115 235.455 114.823 235.357 114.674C235.152 114.38 234.854 114.165 234.511 114.063C233.782 113.821 232.992 113.841 232.277 114.119C232.075 114.19 231.767 114.239 231.689 114.471C231.574 114.833 231.95 115.032 232.242 114.918Z" fill="#111236"/>
<path d="M227.401 110.861C226.455 112.865 225.619 114.963 224.694 116.838C224.102 118.038 223.546 119.272 224.626 120.225C225.276 120.799 226.03 120.105 226.531 120.994C226.941 121.723 225.916 125.045 225.885 126.021C225.798 127.76 225.994 129.502 226.465 131.178C226.513 131.391 226.614 131.588 226.759 131.751C227.019 131.946 227.341 132.04 227.664 132.016C231.972 132.185 236.042 131.744 239.627 129.365C239.17 130.698 238.826 132.067 238.601 133.458C238.126 135.562 237.414 137.495 238.111 139.66C238.404 140.227 238.531 140.866 238.476 141.502C238.422 142.138 238.188 142.745 237.802 143.254C237.083 144.627 236.529 146.08 236.152 147.584C236.132 147.707 236.083 147.823 236.01 147.923C235.714 148.265 235.177 147.903 234.875 147.566C233.817 146.384 232.586 145.371 231.223 144.56C228.743 143.001 226.479 141.123 224.488 138.974C222.966 137.353 223.949 135.946 223.938 134.043C223.925 131.749 222.11 130.258 220.896 128.499C219.097 125.883 218.604 122.674 218.281 119.592C217.887 115.53 218.554 111.434 220.217 107.706C221.61 104.834 223.925 102.512 226.793 101.11C228.058 100.529 231.211 99.0993 232.484 100.295C234.526 102.215 230.779 105.245 229.801 106.605C228.873 107.948 228.07 109.372 227.401 110.861Z" fill="#8C4D38"/>
<path d="M233.717 123.497C233.79 123.452 233.861 123.403 233.929 123.35C233.961 123.326 233.999 123.299 234.04 123.31C234.056 123.317 234.07 123.326 234.081 123.339C234.093 123.351 234.102 123.366 234.107 123.382C234.194 123.595 234.228 123.825 234.206 124.054C234.184 124.282 234.106 124.502 233.98 124.694C233.722 125.075 233.379 125.392 232.978 125.619C232.174 126.144 231.3 126.553 230.383 126.835C229.607 127.184 228.768 127.369 227.918 127.378C227.385 127.295 227.108 126.464 227.012 126.012C226.952 125.705 226.936 125.392 226.963 125.08C228.36 125.069 229.746 124.83 231.066 124.372C231.988 124.212 232.881 123.917 233.717 123.497Z" fill="white"/>
<path d="M244.229 118.398C244.185 117.531 244.197 116.662 244.266 115.797C244.073 114.548 243.634 113.349 242.974 112.271C242.392 111.179 241.443 110.326 240.294 109.862C239.304 109.51 238.209 109.566 237.206 109.252C234.82 108.507 233.47 105.896 231.184 104.884C229.287 104.245 227.232 104.25 225.338 104.897C224.585 105.086 223.838 105.295 223.096 105.523C222.43 105.82 221.737 106.053 221.027 106.22C219.914 106.317 218.819 105.1 218.144 104.328C217.292 103.365 216.647 102.237 216.251 101.014C216.028 100.365 215.982 100.429 215.301 100.354C214.786 100.305 214.277 100.2 213.784 100.04C212.721 99.6906 211.752 99.1044 210.949 98.3256C210.146 97.5469 209.53 96.5959 209.148 95.5445C208.596 93.4524 208.782 91.2342 209.674 89.2631C211.296 85.5229 214.201 82.4849 217.865 80.6968C221.528 78.9086 225.71 78.4879 229.657 79.5103C232.194 80.2529 234.623 81.6168 237.267 81.5867C239.516 81.5622 241.64 80.5201 243.882 80.3208C245.176 80.2143 246.479 80.3878 247.7 80.8297C248.921 81.2716 250.033 81.9714 250.96 82.8815C252.642 84.5515 253.734 86.9574 255.909 87.9093C257.876 88.7699 260.297 88.2099 262.163 89.2743C264.219 90.4477 264.835 93.2522 264.245 95.5468C263.478 97.7924 262.313 99.8816 260.807 101.715C259.449 103.654 258.158 105.798 258.087 108.164C258.012 110.678 259.277 113.449 257.902 115.554C256.9 117.088 254.896 117.558 253.428 118.656C250.607 120.772 250.003 125.014 247.09 127.006C246.905 127.162 246.687 127.274 246.453 127.336C246.218 127.397 245.973 127.407 245.735 127.363C245.427 127.215 245.187 126.953 245.069 126.633C244.95 126.312 244.961 125.957 245.1 125.645C245.403 125.028 245.858 124.499 246.421 124.105C247.742 123.171 248.715 121.824 249.187 120.277C249.294 119.734 249.26 119.172 249.087 118.646C248.915 118.12 248.611 117.646 248.204 117.271C246.756 116.052 246.161 117.238 245.369 118.427C245.295 118.56 245.192 118.674 245.066 118.761C244.559 119.037 244.325 118.822 244.229 118.398Z" fill="#444560"/>
<path d="M222.765 109.525C222.501 109.558 222.24 109.614 221.986 109.692C221.81 109.748 221.547 109.984 221.402 110.01C221.045 110.072 221.056 109.565 221.235 109.253C221.388 109.012 221.606 108.819 221.863 108.696C222.726 108.293 223.698 108.186 224.628 108.393C224.825 108.402 225.018 108.458 225.189 108.557C225.36 108.656 225.505 108.795 225.611 108.962C225.701 109.172 225.722 109.671 225.47 109.764C225.296 109.827 224.825 109.574 224.638 109.535C224.019 109.422 223.385 109.418 222.765 109.525Z" fill="#444560"/>
<path d="M222.89 113.505C223.075 113.468 223.267 113.489 223.439 113.565C223.612 113.641 223.757 113.769 223.854 113.931C223.874 114.005 223.906 114.074 223.947 114.138C223.979 114.168 224.018 114.19 224.059 114.203C224.1 114.216 224.144 114.22 224.187 114.214C224.231 114.208 224.272 114.193 224.308 114.17C224.345 114.146 224.376 114.115 224.399 114.078C224.441 114 224.462 113.912 224.462 113.823C224.462 113.735 224.441 113.647 224.399 113.568C224.309 113.394 224.183 113.24 224.03 113.118C223.876 112.995 223.699 112.906 223.509 112.857C223.084 112.71 222.624 112.698 222.192 112.823C221.76 112.947 221.377 113.202 221.095 113.553C220.563 114.612 222.52 113.539 222.89 113.505Z" fill="#111236"/>
<path d="M220.301 172.723C219.522 171.068 218.935 169.33 218.552 167.541C218.468 166.985 218.208 166.47 217.811 166.072C217.372 165.726 216.565 165.825 216.434 166.368C216.376 166.997 216.351 167.629 216.36 168.261C216.415 170.589 216.795 172.899 217.49 175.122C217.817 176.259 218.215 177.375 218.682 178.462C218.799 178.667 218.869 178.895 218.888 179.131C218.907 179.366 218.875 179.602 218.794 179.824C218.636 180.316 218.382 180.772 218.045 181.165C217.467 181.803 216.798 182.352 216.06 182.796C215.981 182.837 215.917 182.901 215.877 182.98C215.854 183.084 215.865 183.193 215.909 183.291C215.983 183.55 215.993 183.823 215.938 184.087C215.883 184.351 215.765 184.598 215.593 184.806C216.126 184.361 216.662 183.904 217.237 183.508C217.555 183.28 217.899 183.089 218.26 182.939C219.014 182.694 219.806 182.583 220.598 182.612C220.681 182.601 220.766 182.617 220.839 182.657C220.894 182.703 220.936 182.764 220.958 182.832C221.081 183.195 221.225 183.55 221.39 183.896C221.569 184.206 221.775 184.509 221.978 184.804C222.398 185.419 222.865 186.001 223.374 186.545C224.384 187.624 225.567 188.527 226.874 189.217C227.419 189.502 234.031 191.275 233.917 190.715C234.115 191.694 232.581 192.571 233.065 193.446C233.231 193.694 233.483 193.872 233.771 193.946C235.45 194.524 237.276 193.867 238.927 193.217L257.323 185.98C257.388 185.968 257.45 185.941 257.505 185.904C257.56 185.866 257.607 185.817 257.642 185.76C257.677 185.704 257.701 185.641 257.71 185.575C257.72 185.509 257.716 185.441 257.699 185.377L257.505 179.884C257.516 179.676 257.47 179.47 257.371 179.287C257.14 178.953 256.647 178.969 256.239 178.995C254.829 179.075 253.42 178.808 252.136 178.218C250.852 177.629 249.732 176.735 248.873 175.613C248.065 174.538 247.302 173.133 245.961 173.022C245.504 173.011 245.048 173.087 244.618 173.245C240.276 174.574 236.097 176.419 231.664 177.436C229.728 177.881 227.578 178.48 225.7 177.72C224.005 176.924 222.518 175.745 221.358 174.276C220.949 173.799 220.594 173.278 220.301 172.723Z" fill="#4DC1B7"/>
<path d="M208.165 162.457C208.649 157.662 209.485 153.404 213.122 149.876C214.83 148.217 217.674 146.344 220.146 146.515C220.973 146.573 221.767 146.868 222.596 146.97C223.465 147.029 224.338 147.014 225.204 146.924C227.029 146.861 228.855 147.015 230.644 147.384C232.22 147.683 234.095 148.545 235.654 148.476C235.467 147.349 234.305 146.547 233.427 145.915C231.027 144.39 228.764 142.657 226.665 140.738C225.451 139.499 223.547 136.973 221.522 137.465C220.472 137.8 219.595 138.533 219.079 139.507C218.513 140.437 218.139 141.473 217.591 142.415C216.657 144.018 214.898 144.975 213.529 146.208C211.914 147.614 210.468 149.202 209.219 150.941C207.435 153.422 206.428 156.377 206.324 159.432C206.346 162.341 207.179 165.18 207.215 168.094C207.237 170.209 206.718 172.411 207.428 174.409C207.782 171.934 208.602 169.03 208.493 166.54C208.278 165.189 208.168 163.824 208.165 162.457Z" fill="#1AAFA2"/>
<path d="M245.432 140.79C246.057 143.294 244.835 146.594 243.185 148.444C243.282 148.522 243.395 148.58 243.515 148.615C243.635 148.649 243.762 148.659 243.886 148.644C244.015 148.598 244.132 148.525 244.229 148.429C245.261 147.448 246.36 146.539 247.517 145.708C248.927 144.9 250.38 144.17 251.87 143.521C251.988 143.464 252.119 143.388 252.145 143.259C252.185 143.057 251.948 142.925 251.751 142.861C250.54 142.659 249.304 142.644 248.089 142.818C248.573 142.04 248.774 141.12 248.659 140.211C248.544 139.303 248.119 138.461 247.456 137.829C246.795 137.18 246.023 136.655 245.177 136.278C244.328 135.824 243.395 135.546 242.435 135.461C242.245 135.489 242.066 135.565 241.913 135.682C241.761 135.799 241.641 135.953 241.565 136.129C241.491 136.307 241.459 136.5 241.47 136.693C241.481 136.886 241.535 137.073 241.628 137.242C241.688 137.361 241.774 137.463 241.881 137.542C242.019 137.622 242.169 137.679 242.326 137.709C243.082 137.878 243.774 138.257 244.323 138.802C244.873 139.347 245.257 140.036 245.432 140.79Z" fill="#93DBD2"/>
<path d="M230.884 202.56C239.194 197.961 247.986 194.292 257.101 191.62C257.528 191.495 258.103 191.43 258.311 191.827C258.393 192.051 258.386 192.298 258.292 192.517C257.651 194.611 256.164 196.787 257.056 198.787C257.619 199.819 258.544 200.607 259.653 200.997C261.539 201.813 263.6 202.122 265.554 202.747C269.598 204.039 273.072 206.644 276.465 209.194C270.362 211.523 263.725 211.961 257.204 212.359C247.407 212.957 237.405 213.498 227.93 210.934C227.068 210.721 226.23 210.423 225.427 210.043C222.75 208.699 223.889 207.492 225.747 205.924C227.345 204.637 229.065 203.51 230.884 202.56Z" fill="#05306D"/>
<path d="M288.724 223.156C290.115 225.888 290.137 229.083 290.771 232.082C291.855 236.305 293.652 240.311 296.083 243.928C297.142 243.928 296.126 245.995 295.901 246.25C295.186 247.063 294.083 247.808 293.28 248.588C293.076 248.814 292.831 248.997 292.556 249.129C291.759 249.445 290.92 248.82 290.309 248.218C288.1 246.038 286.19 243.574 284.631 240.891C284.372 240.509 284.205 240.074 284.141 239.618C284.138 239.254 284.199 238.893 284.319 238.55C285.47 234.553 286.903 230.645 287.907 226.63C288.07 225.991 289.005 223.706 288.724 223.156Z" fill="#042759"/>
<path d="M203.918 247.029C204.004 247.018 204.089 246.998 204.171 246.969L213.812 244.691L232.452 240.284L253.286 235.36L269.507 231.527C270.921 231.193 272.359 230.907 273.76 230.525C276.35 229.62 278.834 228.439 281.171 227.002C283.875 225.589 286.44 223.923 288.832 222.027L288.052 230.449C288.15 234.892 286.602 239.215 283.705 242.585C282.126 244.831 280.348 246.932 278.393 248.86C270.237 256.499 259.389 260.569 248.667 263.075C217.426 270.378 184.796 265.97 152.698 265.872C120.665 265.777 88.766 270.014 57.8684 278.467C47.9597 281.179 11.0983 281.735 0.822266 281.735V271.451L16.3121 266.311L144.81 247.036L203.918 247.029Z" fill="#E18B96"/>
<path d="M286.331 207.837H36.4235L0.821289 271.449C11.0974 271.449 47.9632 270.892 57.8674 268.18C88.7651 259.728 120.664 255.491 152.697 255.586C184.799 255.686 217.428 260.092 248.666 252.788C260.553 250.005 272.478 245.261 280.649 236.281C288.819 227.301 292.384 218.331 286.331 207.837Z" fill="#F9E5E9"/>
<path d="M36.3158 244.361C36.2101 244.412 36.1054 244.465 36.003 244.521C35.2075 244.929 34.5686 245.588 34.1849 246.395C34.0316 246.703 33.9858 247.054 34.0547 247.391C34.2261 248.016 34.932 248.314 35.5621 248.47C38.5681 249.214 41.7278 248.72 44.8173 248.457C48.3565 248.157 51.9916 248.151 55.326 246.927C55.8239 246.763 56.2923 246.521 56.7132 246.208C56.8381 246.124 56.9438 246.015 57.0234 245.887C57.103 245.759 57.1547 245.616 57.1753 245.467C57.1931 245.015 56.7566 244.688 56.3558 244.477C55.0578 243.799 53.6226 243.425 52.1586 243.383C51.6754 243.368 51.1566 243.481 50.6834 243.42C49.7393 243.299 48.8264 243.148 47.8611 243.114C46.7177 243.076 45.5721 243.088 44.4287 243.143C42.4457 243.16 40.4674 243.338 38.5136 243.677C37.757 243.819 37.0195 244.049 36.3158 244.361Z" fill="#EFC2C8"/>
<path d="M43.2632 225.784C44.3765 224.289 47.996 223.597 49.5246 223.39C51.9124 223.126 54.3254 223.201 56.6922 223.612C58.5994 223.896 60.6112 224.466 60.5488 226.643C60.4753 229.169 60.5488 231.707 60.5488 234.235V240.218C60.5488 240.895 60.541 241.573 60.5488 242.251C60.5744 242.773 60.4559 243.293 60.2061 243.753C59.9564 244.213 59.585 244.595 59.1326 244.858C57.67 245.949 55.9922 246.717 54.2104 247.11C52.4287 247.504 50.5836 247.514 48.7976 247.14C47.4837 246.94 46.2251 246.471 45.1002 245.763C44.5449 245.439 44.0654 244.999 43.694 244.474C43.3226 243.949 43.0679 243.351 42.947 242.719C42.8991 241.971 43.0762 241.075 43.0762 240.297V230.054C43.0762 229.064 42.6631 226.983 43.0762 226.104C43.1274 225.991 43.1901 225.884 43.2632 225.784Z" fill="white"/>
<path d="M49.5743 229C51.8125 228.986 54.0461 228.796 56.2543 228.431C56.4291 228.411 56.6808 228.461 56.6652 228.637C54.5525 229.422 52.3692 230.003 50.1455 230.371C48.6158 230.625 46.909 230.863 45.9337 232.068C44.8494 233.404 45.1344 235.364 45.6064 237.02C45.8164 237.83 46.1151 238.614 46.4971 239.358C47.047 240.285 47.7035 241.145 48.4532 241.919C48.6291 242.115 48.8058 242.31 48.9832 242.503C49.7748 243.407 50.6521 244.231 51.6028 244.965C52.0732 245.316 52.5775 245.618 53.1081 245.869C53.3696 246.001 53.6437 246.107 53.9264 246.185C54.2486 246.255 54.54 246.426 54.758 246.673C54.9807 247.016 54.4942 247.094 54.2626 247.148C53.5051 247.324 52.7268 247.393 51.9502 247.354C50.9103 247.303 49.8672 247.381 48.824 247.314C47.4714 247.246 46.1362 246.978 44.8616 246.52C44.4796 246.396 44.1245 246.2 43.8151 245.944C42.9467 245.152 42.9322 243.69 42.8131 242.609C42.7671 242.197 42.7299 241.785 42.7017 241.372C42.6383 240.547 42.6004 239.719 42.5837 238.892C42.5247 236.042 42.704 233.195 42.8832 230.352C42.9567 229.197 42.6717 228.1 42.8465 226.942C42.9084 226.368 43.1195 225.821 43.4588 225.354C43.7383 225.003 44.4074 224.441 44.8861 224.638C44.5065 224.827 44.1836 225.809 44.1313 226.232C44.0355 227.04 44.3061 227.335 44.9941 227.711C46.3989 228.493 47.9677 228.934 49.5743 229Z" fill="#F1F2F8"/>
<path d="M238.8 239.682C237.961 239.941 237.151 240.285 236.383 240.711C235.62 241.14 234.811 241.903 235.061 242.742C235.247 243.368 235.937 243.679 236.56 243.873C240.846 245.201 245.462 244.661 249.899 244.006C252.135 243.774 254.327 243.231 256.412 242.391C257.048 242.103 257.748 241.628 257.748 240.93C257.732 240.623 257.62 240.328 257.43 240.086C257.196 239.758 256.883 239.494 256.519 239.32C256.156 239.146 255.754 239.067 255.351 239.091C254.324 239.082 253.275 238.926 252.219 238.826C249.884 238.625 247.538 238.593 245.198 238.729C243.034 238.776 240.884 239.096 238.8 239.682Z" fill="#EFC2C8"/>
<path d="M261.229 227.637C261.489 227.891 261.685 228.203 261.802 228.547C262.05 229.189 262.166 229.875 262.142 230.563C262.117 231.251 261.953 231.927 261.66 232.55C261.367 233.173 260.95 233.73 260.435 234.187C259.92 234.644 259.318 234.991 258.664 235.209L258.625 236.183C258.625 236.279 258.625 236.39 258.703 236.445C258.761 236.477 258.829 236.487 258.894 236.475C259.648 236.399 260.375 236.148 261.015 235.74C261.654 235.332 262.189 234.779 262.575 234.127C262.929 233.471 263.187 232.769 263.342 232.041C263.717 230.831 263.761 229.543 263.47 228.309C263.176 227.411 262.596 226.633 261.818 226.094C261.041 225.555 260.109 225.285 259.164 225.325C258.896 225.317 258.635 225.414 258.436 225.595C258.333 225.775 258.276 225.977 258.273 226.185C258.269 226.392 258.318 226.597 258.415 226.78C258.727 227.512 258.415 227.129 259.097 227.281C259.872 227.453 260.51 226.989 261.229 227.637Z" fill="white"/>
<path d="M259.842 240.453C258.728 241.947 255.109 242.639 253.579 242.846C251.192 243.112 248.779 243.039 246.413 242.629C244.505 242.345 242.493 241.775 242.556 239.598C242.629 237.073 242.556 234.533 242.556 232.007V226.023C242.556 225.346 242.564 224.668 242.556 223.991C242.53 223.468 242.649 222.949 242.899 222.489C243.148 222.029 243.52 221.646 243.972 221.383C245.435 220.292 247.112 219.525 248.894 219.131C250.676 218.738 252.52 218.728 254.306 219.101C255.621 219.3 256.88 219.769 258.005 220.477C258.56 220.801 259.039 221.241 259.411 221.766C259.782 222.291 260.036 222.889 260.157 223.521C260.206 224.27 260.029 225.165 260.029 225.944V236.186C260.029 237.176 260.441 239.257 260.029 240.136C259.978 240.248 259.915 240.354 259.842 240.453Z" fill="white"/>
<path d="M249.069 224.632C251.308 224.618 253.541 224.427 255.749 224.062C255.924 224.043 256.176 224.092 256.16 224.268C254.047 225.054 251.864 225.635 249.641 226.004C248.111 226.258 246.404 226.496 245.429 227.7C244.344 229.036 244.629 230.996 245.102 232.651C245.311 233.461 245.61 234.245 245.992 234.989C246.543 235.915 247.199 236.772 247.949 237.545C248.124 237.741 248.301 237.935 248.478 238.13C249.27 239.033 250.147 239.857 251.098 240.591C251.568 240.942 252.072 241.245 252.603 241.495C252.865 241.628 253.139 241.734 253.421 241.811C253.744 241.881 254.035 242.052 254.253 242.3C254.481 242.641 253.989 242.719 253.758 242.774C253 242.951 252.222 243.02 251.445 242.981C250.405 242.93 249.362 243.007 248.319 242.94C246.966 242.872 245.631 242.605 244.357 242.146C243.974 242.022 243.619 241.826 243.31 241.569C242.442 240.779 242.428 239.317 242.308 238.236C242.264 237.824 242.227 237.412 242.197 236.999C242.133 236.173 242.096 235.346 242.079 234.517C242.02 231.668 242.199 228.82 242.378 225.979L242.5 224.053C242.507 223.621 242.576 223.193 242.706 222.781C242.772 222.575 242.882 222.386 243.027 222.226C243.173 222.067 243.351 221.94 243.55 221.855C243.486 222.006 243.467 222.172 243.495 222.333C243.522 222.495 243.595 222.645 243.704 222.766C243.927 223.006 244.194 223.199 244.49 223.337C245.894 224.121 247.463 224.565 249.069 224.632Z" fill="#F1F2F8"/>
<path d="M306.296 243.995C306.343 243.561 305.994 243.19 305.836 242.783C305.512 241.94 305.269 241.067 304.931 240.222C304.58 239.355 304.152 238.38 303.086 238.303C302.319 238.317 301.572 238.544 300.927 238.96C298.853 240.057 296.842 241.269 294.903 242.591C293.378 243.589 291.958 244.738 290.665 246.023C290.05 246.562 289.643 247.3 289.515 248.108C289.388 248.916 289.548 249.743 289.967 250.446C290.38 251.353 290.924 252.194 291.582 252.943C292.034 253.411 292.753 254.168 293.46 254.078C293.808 254.001 294.124 253.82 294.365 253.559C295.153 252.838 295.813 251.995 296.549 251.221C299.108 248.754 302.031 246.695 305.216 245.115C305.614 244.94 305.954 244.657 306.198 244.297C306.25 244.204 306.283 244.101 306.296 243.995Z" fill="#6D9FEB"/>
<path d="M171.75 233.159C170.319 235.39 168.754 237.532 167.061 239.571C166.869 239.836 166.62 240.054 166.332 240.211C166.045 240.368 165.726 240.459 165.399 240.477C165.232 240.46 165.065 240.314 165.094 240.143C165.123 239.973 165.564 239.74 165.7 239.609C165.992 239.274 166.26 238.919 166.505 238.548C167.049 237.84 167.602 237.14 168.164 236.446C169.314 235.014 170.488 233.603 171.655 232.185C171.816 231.988 172.644 231.232 172.783 231.851C172.833 232.074 171.883 232.969 171.75 233.159Z" fill="#FFB192"/>
<path d="M298.952 248.977C297.671 250.722 296.125 252.254 294.369 253.52C293.992 253.801 293.543 253.972 293.074 254.011C292.2 254.02 291.535 253.261 291.016 252.563C289.95 251.122 288.901 249.414 289.247 247.655C289.655 246.313 290.484 245.138 291.611 244.304C292.513 243.43 293.542 242.698 294.663 242.133C295.402 241.799 295.311 243.03 295.453 243.502C295.666 244.212 295.945 244.901 296.286 245.559C296.448 245.868 298.778 249.19 298.952 248.977Z" fill="#042759"/>
<path d="M221.748 79.1396C219.911 79.3189 218.143 79.9313 216.589 80.9265C213.393 82.8748 210.478 85.6025 209.282 89.1473C208.087 92.6922 209.041 97.1277 212.177 99.1673C213.068 99.7429 214.076 100.108 214.974 100.669C218.051 102.597 217.855 107.034 222.376 106.249C223.884 105.863 225.358 105.359 226.787 104.742C227.911 104.355 229.105 104.217 230.286 104.339C230.864 104.389 231.786 105.047 232.335 104.509C232.495 104.315 232.577 104.069 232.565 103.819C232.539 102.084 231.835 100.427 230.604 99.204C229.38 98.001 228.082 96.8769 226.716 95.8384C225.9 95.2188 225.236 94.4211 224.774 93.506C224.551 93.045 224.46 92.5313 224.511 92.0217C224.562 91.5121 224.754 91.0266 225.064 90.6191C225.494 90.2093 225.992 89.8767 226.536 89.6361C227.481 89.187 228.306 88.5203 228.943 87.6906C229.581 86.861 230.012 85.892 230.203 84.8632C230.37 83.3045 230.158 80.2161 228.697 79.3277C226.882 78.2255 224.487 78.9937 222.537 79.0861C222.27 79.0939 222.005 79.1139 221.748 79.1396Z" fill="#111236"/>
<path d="M154.809 104.194C154.878 103.739 155.065 103.31 155.351 102.949C156.371 101.482 157.732 100.285 159.318 99.4602C159.574 99.3266 159.901 99.2086 160.131 99.3812C160.201 99.4388 160.259 99.509 160.302 99.5882C160.44 99.8141 160.549 100.057 160.625 100.311C160.662 100.413 160.675 100.523 160.66 100.631C160.614 100.866 160.369 100.997 160.157 101.109C158.645 102.098 157.368 103.407 156.416 104.943C156.257 105.155 156.034 105.389 155.776 105.332C155.63 105.282 155.507 105.183 155.425 105.052C155.195 104.752 154.996 104.428 154.831 104.087" fill="#FF9400"/>
<path d="M173.767 101.021C173.84 100.99 173.906 100.943 173.961 100.885C174.159 100.679 174.334 100.452 174.483 100.208C174.55 100.122 174.602 100.024 174.636 99.9198C174.731 99.5646 174.427 99.2351 174.13 99.0191C172.99 98.1958 171.587 97.8227 170.189 97.9715C169.912 97.9845 169.644 98.0681 169.409 98.2142C169.206 98.4205 169.051 98.6704 168.958 98.9451C168.865 99.2197 168.836 99.5119 168.873 99.7996C169.968 99.77 171.061 99.9181 172.109 100.238C172.572 100.396 173.015 100.604 173.432 100.859C173.622 100.974 173.68 101.043 173.767 101.021Z" fill="#FF9400"/>
<path d="M159.986 109.919C160.054 110.069 160.156 110.201 160.285 110.306C160.413 110.41 160.563 110.483 160.724 110.519C160.877 110.534 161.031 110.51 161.171 110.448C161.312 110.387 161.434 110.29 161.526 110.167C161.679 109.937 161.757 109.664 161.748 109.388C161.763 108.804 161.38 106.687 160.231 106.998C159.144 107.298 159.663 109.336 159.986 109.919Z" fill="#444560"/>
<path d="M171.303 107.147C171.325 107.45 171.407 107.746 171.544 108.017C171.682 108.288 171.872 108.529 172.103 108.726C172.177 108.798 172.267 108.852 172.365 108.884C172.463 108.917 172.567 108.926 172.67 108.912C172.74 108.888 172.804 108.85 172.859 108.801C172.914 108.751 172.958 108.692 172.99 108.625C173.194 108.221 173.312 107.779 173.337 107.327C173.361 106.876 173.292 106.424 173.133 106C173.097 105.826 173.027 105.661 172.928 105.514C172.828 105.367 172.7 105.241 172.552 105.144C171.3 104.462 171.251 106.623 171.303 107.147Z" fill="#444560"/>
<path d="M76.8345 120.373C77.3912 119.912 77.9612 119.473 78.5524 119.055C79.2474 118.511 80.0476 118.116 80.9026 117.897C81.3056 117.815 81.4693 117.717 81.3758 117.262C81.3493 117.08 81.2673 116.909 81.1409 116.775C81.0144 116.64 80.8496 116.548 80.6688 116.51C80.445 116.49 80.2197 116.52 80.0086 116.597C78.2958 117.109 76.7592 118.088 75.5709 119.423C75.5142 119.479 75.4702 119.546 75.4417 119.62C75.417 119.759 75.4431 119.902 75.5152 120.023L75.7601 120.568C75.8028 120.697 75.8855 120.809 75.9962 120.888C76.2544 121.033 76.6642 120.514 76.8345 120.373Z" fill="#5A489B"/>
<path d="M89.8141 117.292C90.2251 117.376 90.6467 117.394 91.0633 117.346C91.8672 117.37 92.668 117.458 93.4581 117.609C93.8635 117.663 94.2537 117.799 94.6048 118.009C95.1136 118.352 95.1848 117.686 95.3552 117.295C95.4055 117.213 95.4372 117.121 95.448 117.026C95.4587 116.931 95.4483 116.834 95.4175 116.743C95.3467 116.636 95.2445 116.553 95.1247 116.505C93.6278 115.676 91.887 115.4 90.2071 115.726C90.0259 115.768 89.8602 115.861 89.7284 115.992C89.5882 116.193 89.5139 116.432 89.5158 116.677C89.4845 116.798 89.4973 116.926 89.552 117.039C89.6066 117.152 89.6995 117.242 89.8141 117.292Z" fill="#5A489B"/>
<path d="M79.2358 124.815C79.4063 124.663 79.5847 124.52 79.7702 124.387C80.553 123.964 81.4472 123.793 82.3309 123.897L82.4956 123.416C82.3606 123.289 82.196 123.198 82.0167 123.15C81.8375 123.103 81.6493 123.101 81.4692 123.145C80.7864 123.217 80.1175 123.386 79.483 123.648C79.1239 123.754 78.8154 123.986 78.6146 124.302C78.5155 124.525 78.5121 125.042 78.8595 125.058C79.0008 125.005 79.1291 124.922 79.2358 124.815Z" fill="#444560"/>
<path d="M94.1722 123.63C94.2172 123.636 94.2629 123.63 94.305 123.613C94.3472 123.596 94.3846 123.569 94.4138 123.535C94.489 123.429 94.5234 123.299 94.5105 123.17C94.4976 123.041 94.4383 122.921 94.3436 122.832C94.148 122.659 93.9083 122.544 93.6511 122.498C92.8291 122.251 91.9553 122.231 91.1227 122.44C90.9212 122.502 90.6863 122.651 90.7286 122.858C90.7565 122.994 90.8043 123.138 90.8288 123.266C91.3563 123.087 91.9157 123.021 92.4704 123.073C93.025 123.125 93.5625 123.294 94.0475 123.568C94.0852 123.596 94.1274 123.617 94.1722 123.63Z" fill="#444560"/>
<path d="M247.507 119.016C247.585 119.325 247.539 119.653 247.379 119.929C247.221 120.202 247.108 120.5 247.045 120.809C246.895 120.752 246.742 120.705 246.586 120.668C246.204 120.627 245.903 120.985 245.737 121.331C245.622 121.698 245.404 122.024 245.109 122.271C244.95 121.975 244.898 121.633 244.96 121.302C245.023 120.971 245.197 120.672 245.453 120.454C245.624 120.34 245.789 120.217 245.948 120.086C246.11 119.922 246.208 119.704 246.224 119.473C246.263 118.867 247.169 118.068 247.507 119.016Z" fill="#9E6452"/>
<path d="M169.291 119.291C169.587 119.719 166.932 121.316 166.55 121.443C165.58 121.732 164.539 121.663 163.615 121.25C162.947 120.966 161.569 120.255 161.343 119.525C162.066 119.586 162.78 119.732 163.47 119.959C164.163 120.049 164.862 120.076 165.56 120.041C166.175 120.051 166.789 119.992 167.392 119.865C167.734 119.775 168.95 119.145 169.241 119.254C169.261 119.261 169.279 119.273 169.291 119.291Z" fill="#D1435B"/>
<path d="M78.1983 135.02C79.1759 135.718 80.2815 136.216 81.4518 136.485C82.6222 136.755 83.8343 136.791 85.0186 136.592C84.4513 137.098 83.7809 137.475 83.0537 137.696C82.3265 137.918 81.5599 137.978 80.8069 137.874C80.056 137.751 79.3619 137.398 78.8204 136.863C78.2789 136.329 77.9169 135.639 77.7842 134.89" fill="white"/>
<path d="M64.2208 156.636C58.7626 159.532 54.0022 163.585 50.2718 168.51C47.5469 172.639 45.2367 177.027 43.3747 181.61C40.3903 187.949 37.8129 194.472 35.6582 201.139C35.0379 202.678 34.9149 204.372 35.3064 205.985C35.921 207.737 37.6144 208.86 39.271 209.7C46.7738 213.507 55.7005 214.789 64.0338 214.549C64.5804 214.532 65.7928 214.749 65.8786 213.992C65.7934 213.461 65.6278 212.946 65.3876 212.465L64.9422 211.071C64.3351 209.171 63.7287 207.271 63.1231 205.37C62.7067 204.066 62.8091 202.995 61.5354 202.262C60.038 201.404 58.0607 201.149 56.4319 200.565C55.8843 200.408 55.377 200.135 54.9445 199.764C53.5495 198.392 54.6439 195.835 54.7931 194.183C55.0781 191.035 55.1015 187.897 55.5379 184.755C55.9632 181.69 56.6256 178.52 58.5439 176.093" fill="#92B7F0"/>
<path d="M57.3754 198.059C57.8617 198.403 58.4325 198.608 59.0265 198.652C61.0527 198.96 63.4074 199.919 65.4649 199.647C67.6751 199.187 69.7186 198.135 71.3767 196.603C71.8697 196.223 72.282 195.748 72.5894 195.206C72.8968 194.665 73.0931 194.067 73.1669 193.449C73.0707 192.235 72.5965 191.081 71.8109 190.15L63.2727 177.645C63.0734 177.352 62.8274 177.032 62.4756 176.998C61.841 176.937 61.5615 177.769 61.5036 178.402C61.144 182.299 61.281 186.513 60.2589 190.298C59.6193 192.045 58.7265 193.688 57.6092 195.176C57.1249 195.949 56.6328 196.931 57.0926 197.719C57.1676 197.847 57.2631 197.962 57.3754 198.059Z" fill="#2A69C5"/>
<path d="M59.0218 211.608C55.18 210.742 51.5123 209.233 48.1735 207.144C46.0247 205.801 41.8909 203.376 40.8255 200.966C39.8368 198.729 41.2474 195.54 41.8998 193.107C44.9359 181.783 49.4961 169.788 58.9071 162.211C60.9545 160.563 63.3716 159.032 64.211 156.541C64.0028 157.158 60.1529 158.656 59.4371 159.128C57.806 160.2 54.4026 161.566 52.9897 162.913C50.1307 165.637 48.8159 168.973 46.6961 172.266C45.4046 174.27 45.2487 176.173 44.2178 178.321C43.3651 180.228 42.6544 182.195 42.0913 184.206C41.312 186.665 39.9014 189.011 38.9885 191.443C38.2782 193.335 37.8751 195.458 37.0446 197.29C36.2217 198.785 35.591 200.379 35.1675 202.033C34.9518 202.94 34.9095 203.88 35.0428 204.803C35.2897 205.901 35.833 206.91 36.6137 207.721C38.6066 209.926 41.4968 211.074 44.3358 211.951C49.6749 213.601 55.2044 214.555 60.7875 214.79C62.4408 214.859 65.3589 215.624 66.4655 213.894C67.9129 211.625 64.1476 212.382 62.6691 212.224C61.4429 212.086 60.2252 211.881 59.0218 211.608Z" fill="#578DDE"/>
<path d="M131.522 223.809L72.123 225.459V207.31H148.022L131.522 223.809Z" fill="#111236"/>
<path d="M126.571 218.859L77.0723 217.209V210.61H138.121L126.571 218.859Z" fill="#68697F"/>
<path d="M131.522 223.81H68.8219L56.9371 185.177C56.7852 184.683 56.7512 184.161 56.8378 183.652C56.9245 183.143 57.1294 182.662 57.4362 182.246C57.7429 181.831 58.1428 181.494 58.6037 181.261C59.0647 181.028 59.5738 180.907 60.0901 180.907H115.885C116.59 180.907 117.278 181.133 117.845 181.553C118.413 181.972 118.831 182.562 119.039 183.236L131.522 223.81Z" fill="#111236"/>
<path d="M236.472 171.267C236.276 171.201 236.068 171.182 235.864 171.212C235.688 171.287 235.541 171.416 235.443 171.581C234.195 173.288 233.32 175.238 232.873 177.305C232.603 178.306 232.599 179.361 232.863 180.364C233.174 181.182 233.651 181.927 234.265 182.551C234.546 182.97 234.928 183.31 235.375 183.542C235.823 183.773 236.322 183.887 236.826 183.874C237.202 183.776 237.556 183.608 237.871 183.38L241.506 181.07C241.78 180.962 242.007 180.76 242.146 180.5C242.285 180.241 242.327 179.94 242.265 179.652C242.16 177.539 242.038 175.426 241.899 173.314C241.832 172.307 241.76 170.21 240.473 169.943C239.019 169.645 237.966 171.537 236.472 171.267Z" fill="#B5745B"/>
<path d="M232.05 179.553C229.928 183.762 227.221 187.65 224.009 191.1C222.317 193.169 220.08 194.726 217.552 195.595C214.991 196.286 211.841 195.452 210.617 193.092C211.118 197.274 212.838 201.215 215.563 204.426C215.863 204.843 216.276 205.166 216.753 205.358C217.689 205.643 218.615 204.947 219.348 204.298C223.771 200.378 228.236 196.417 231.817 191.687C232.794 190.595 233.626 189.381 234.29 188.075C234.879 186.696 235.701 185.429 236.719 184.328C237.309 183.668 236.107 183.549 235.637 183.319C235.235 183.032 234.871 182.697 234.551 182.322C234.149 181.964 233.734 181.62 233.334 181.26C233.048 181.001 231.796 180.066 232.05 179.553Z" fill="#1AAFA2"/>
<path d="M212.718 188.388C211.298 190.496 210.48 192.792 211.779 194.334C212.451 195.042 213.203 195.669 214.02 196.202C214.429 196.6 214.916 196.909 215.45 197.109C215.984 197.31 216.554 197.397 217.124 197.367C218.012 197.189 218.847 196.811 219.566 196.26C221.033 195.282 222.463 194.252 223.854 193.169C225.901 191.603 227.814 189.869 229.574 187.986C230.482 186.996 231.299 185.928 232.016 184.794C232.338 184.266 232.689 183.756 233.066 183.266C233.339 182.922 234.104 182.416 234.132 181.961C234.132 181.816 234.099 181.672 234.037 181.541C233.617 180.437 233.289 179.3 233.055 178.143C232.951 177.48 232.972 176.804 233.117 176.149C232.979 175.979 232.711 176.054 232.511 176.149C231.578 176.627 230.674 177.159 229.804 177.744C226.389 179.82 223.666 182.382 219.487 182.859C219.012 182.885 218.543 182.969 218.089 183.109C217.699 183.272 217.336 183.492 217.011 183.762C215.364 185.089 213.918 186.647 212.718 188.388Z" fill="#87D7CD"/>
<path d="M241.356 177.647C241.359 178.158 241.279 178.665 241.119 179.149C240.884 179.661 240.564 180.128 240.172 180.532L237.827 183.237C237.667 183.462 237.444 183.634 237.186 183.733C236.982 183.774 236.77 183.758 236.573 183.688C236.048 183.519 235.562 183.247 235.143 182.888C234.724 182.53 234.38 182.092 234.131 181.6C233.639 180.61 233.405 179.511 233.453 178.407C233.448 178.304 233.466 178.202 233.506 178.108C233.65 177.828 234.052 177.87 234.369 177.877C235.611 177.902 236.584 176.757 237.807 176.541C238.134 176.526 238.456 176.448 238.754 176.31C238.997 176.114 239.184 175.857 239.297 175.565C239.719 174.735 240.247 173.963 240.868 173.27C241.555 172.503 241.376 174.39 241.384 174.734C241.406 175.704 241.397 176.675 241.356 177.647Z" fill="#8C4D38"/>
<path d="M233.862 161.749L232.938 162.395C232.814 162.481 232.784 162.652 232.871 162.776L242.129 176.017C242.216 176.141 242.386 176.171 242.51 176.085L243.434 175.439C243.558 175.352 243.588 175.182 243.501 175.058L234.243 161.816C234.156 161.693 233.986 161.662 233.862 161.749Z" fill="#5A489B"/>
<path d="M267.791 182.35L240.395 189.776C240.048 189.859 239.686 189.852 239.342 189.758C238.999 189.663 238.685 189.483 238.429 189.234C238.174 188.986 237.985 188.677 237.881 188.336C237.777 187.995 237.761 187.633 237.834 187.284L242.51 161.766C242.578 161.371 242.756 161.003 243.024 160.705C243.292 160.406 243.64 160.19 244.025 160.081L271.421 152.655C271.768 152.573 272.13 152.579 272.473 152.674C272.817 152.768 273.131 152.948 273.387 153.197C273.642 153.445 273.831 153.755 273.935 154.095C274.039 154.436 274.055 154.798 273.982 155.147L269.306 180.666C269.238 181.061 269.059 181.428 268.791 181.726C268.523 182.025 268.176 182.241 267.791 182.35Z" fill="#111236"/>
<path d="M272.41 168.299C272.456 168.322 272.502 168.347 272.548 168.374C273.156 168.714 273.607 169.276 273.805 169.943C273.936 170.502 273.957 171.081 273.868 171.648C273.693 173.162 273.286 174.641 272.66 176.031C272.202 177.057 272.267 178.311 271.219 178.999C271.05 179.11 270.867 179.199 270.696 179.306C270.265 179.571 269.901 179.941 269.449 180.168C269.185 180.3 268.89 180.358 268.596 180.335C268.302 180.313 268.019 180.21 267.779 180.039C267.396 179.705 267.494 179.053 267.577 178.609C267.676 178.087 268.155 178.053 268.586 177.814C269.46 177.255 270.212 176.525 270.798 175.669C271.507 174.833 272.043 173.864 272.375 172.819C272.578 172.08 272.543 171.295 272.273 170.578C272.051 170.021 271.345 169.687 271.312 169.05C271.263 168.06 271.653 167.906 272.41 168.299Z" fill="#73CEC6"/>
<path d="M273.931 171.419C273.931 171.291 273.917 171.163 273.907 171.036L273.758 171.005C273.435 171.994 272.932 172.914 272.275 173.721C272.164 173.832 272.037 173.933 271.935 174.055C271.824 174.194 271.727 174.343 271.643 174.5C271.201 175.318 270.606 176.043 269.892 176.637C269.554 176.9 269.182 177.116 268.787 177.28C268.361 177.413 267.974 177.647 267.657 177.961C267.18 178.54 267.472 179.372 267.686 179.998C267.699 180.048 267.723 180.095 267.757 180.134C267.799 180.169 267.847 180.192 267.9 180.203C268.185 180.309 268.49 180.351 268.794 180.328C269.097 180.305 269.392 180.217 269.659 180.07C270.249 179.692 271.635 179.606 272.156 179.138C272.669 178.62 273.104 178.032 273.45 177.39C273.988 176.401 274.351 175.327 274.521 174.214C274.668 173.274 273.972 172.381 273.931 171.419Z" fill="#1AAFA2"/>
<path d="M90.5053 129.192C90.5053 129.192 89.4176 124.627 89.0224 124.313C88.6271 123.999 89.029 130.405 88.4746 131.851L90.5053 129.192Z" fill="#FFDBBD"/>
<path d="M93.3715 136.416C93.3715 136.416 91.4955 142.205 90.4846 143.483C89.4737 144.762 86.3987 145.68 85.2119 145.725C83.1442 145.392 81.1058 144.898 79.1152 144.247C79.1152 144.247 85.5336 144.401 88.5519 142.879C91.5701 141.357 93.3715 136.416 93.3715 136.416Z" fill="#F2B06D"/>
<path d="M85.2988 130.226C86.1697 130.702 87.1044 131.05 88.0744 131.26C89.1009 131.36 90.5048 129.192 90.5048 129.192C90.5048 129.192 89.8134 132.309 88.4674 132.706C87.1214 133.104 85.5371 131.309 85.2988 130.226Z" fill="#D8854C"/>
<path d="M59.4972 161.745C59.4972 161.745 63.8058 159.853 65.0383 159.853C66.2707 159.853 72.7503 161.111 73.6766 161.037C74.6029 160.964 76.647 160.535 76.647 160.535L64.4215 156.59L58.876 159.5" fill="#578DDE"/>
<path d="M272.502 170.549C272.451 170.32 272.342 170.108 272.186 169.932C272.03 169.757 271.832 169.624 271.611 169.547C271.323 169.288 271.026 169.04 270.808 168.817C270.236 168.231 269.686 167.593 269.074 167.048C268.628 166.549 268.059 166.176 267.424 165.966C267.183 165.928 266.94 165.917 266.697 165.933C265.664 165.965 264.631 166.017 263.598 166.087C263.452 166.082 263.309 166.125 263.191 166.211C262.544 166.809 264.281 167.694 264.667 167.793C265.183 167.926 265.72 167.949 266.245 168.041C266.777 168.107 267.277 168.329 267.681 168.682C267.728 168.72 267.761 168.773 267.777 168.832C267.78 168.876 267.77 168.921 267.749 168.96C267.728 169 267.696 169.032 267.658 169.055C267.384 169.249 266.99 169.128 266.682 169.106C266.211 169.078 265.742 169.021 265.277 168.935C264.882 168.856 264.498 168.743 264.095 168.679C263.732 168.63 263.366 168.601 262.999 168.592C262.443 168.57 261.893 168.56 261.338 168.56C260.523 168.491 259.703 168.499 258.889 168.585C258.332 168.648 256.524 168.673 256.637 169.572C256.653 169.658 256.688 169.74 256.739 169.81C256.791 169.881 256.858 169.939 256.935 169.981C257.09 170.062 257.257 170.119 257.429 170.148C258.988 170.451 260.563 170.667 262.145 170.795C262.415 170.796 262.678 170.88 262.899 171.035C262.948 171.074 262.984 171.126 263.005 171.184C263.018 171.253 263.008 171.323 262.976 171.385C262.944 171.447 262.893 171.497 262.83 171.526C262.702 171.582 262.563 171.608 262.424 171.602C261.554 171.609 260.685 171.569 259.82 171.48C258.521 171.348 257.215 171.311 255.911 171.369C255.532 171.359 255.159 171.472 254.85 171.691C254.293 172.173 254.757 172.916 255.316 173.181C255.707 173.338 256.125 173.419 256.546 173.421L262.08 173.792C262.232 173.79 262.383 173.828 262.516 173.903C262.581 173.943 262.628 174.005 262.648 174.078C262.669 174.151 262.662 174.229 262.628 174.296C262.462 174.541 261.976 174.426 261.737 174.426C261.257 174.426 260.777 174.451 260.298 174.463L258.057 174.521C257.423 174.423 256.774 174.508 256.186 174.765C256.025 174.869 255.909 175.029 255.859 175.214C255.809 175.399 255.828 175.596 255.914 175.767C256.066 175.959 256.282 176.093 256.522 176.143C258.192 176.647 260.019 176.152 261.741 176.458C262.019 176.488 262.282 176.597 262.498 176.774C262.57 176.827 262.626 176.898 262.661 176.98C262.696 177.062 262.708 177.152 262.697 177.24C262.686 177.328 262.651 177.412 262.597 177.483C262.542 177.553 262.47 177.607 262.387 177.641C261.634 178.093 260.844 178.481 260.026 178.802C259.564 178.94 259.134 179.171 258.764 179.48C257.594 180.639 260.1 180.356 260.479 180.277C261.787 179.812 263.126 179.44 264.487 179.164C266.053 179.066 268.025 179.901 269.177 178.463C270.172 177.289 271.039 176.012 271.765 174.655C272.305 173.576 273.101 171.76 272.502 170.549Z" fill="#B5745B"/>
<path d="M267.997 176.091C266.992 176.027 265.995 175.878 265.016 175.645C264.205 175.605 263.392 175.631 262.585 175.722C260.831 175.769 259.075 175.702 257.329 175.521C257.114 175.498 255.919 175.225 255.875 175.593C255.874 175.64 255.886 175.687 255.911 175.727C256.416 176.7 258.44 176.436 259.332 176.395C260.027 176.309 260.73 176.311 261.424 176.403C261.974 176.514 262.798 176.891 262.092 177.478C261.38 178.001 260.605 178.432 259.785 178.763C259.405 178.945 257.649 179.945 258.774 180.247C259.323 180.352 259.888 180.342 260.433 180.216C261.079 180.145 261.72 180.029 262.35 179.868C262.945 179.641 263.554 179.455 264.174 179.312C265.527 179.089 267.057 179.809 268.344 179.165C268.971 178.709 269.507 178.141 269.924 177.488C270.406 176.893 270.845 176.266 271.239 175.61C271.436 175.276 271.598 174.933 271.788 174.602C271.864 174.471 271.962 174.355 272.03 174.22C272.083 174.115 272.09 173.886 272.154 173.81C271.655 174.455 271.029 174.991 270.313 175.383C269.598 175.776 268.81 176.017 267.997 176.091Z" fill="#8C4D38"/>
<path d="M167.694 114.732C167.216 114.543 166.738 114.355 166.269 114.149C166.025 114.038 165.784 113.927 165.546 113.815C165.395 113.74 165.013 113.617 164.941 113.46C164.958 113.446 164.977 113.436 164.998 113.432C165.019 113.428 165.041 113.428 165.062 113.435C165.583 113.551 166.091 113.718 166.611 113.833C167.03 113.926 167.455 113.985 167.881 114.036C168.063 114.057 168.215 114.109 168.373 114.006C168.531 113.902 168.683 113.799 168.835 113.688C169.145 113.466 169.447 113.23 169.757 113.004C169.831 112.95 170.67 112.397 170.672 112.404C170.708 112.526 170.699 112.657 170.645 112.772C170.402 113.355 170.046 113.884 169.6 114.331C169.39 114.637 169.076 114.857 168.717 114.95C168.363 114.961 168.012 114.886 167.694 114.732Z" fill="#F7A98D"/>
<path d="M177.219 226.988C175.807 228.874 174.663 230.946 173.82 233.146C173.74 233.305 173.712 233.485 173.74 233.661C173.812 233.842 173.937 233.997 174.098 234.107L176.953 236.504C177.322 236.834 177.722 237.128 178.146 237.383C178.665 237.648 179.208 237.86 179.77 238.014L181.059 238.415C182.603 238.897 182.883 237.4 183.451 236.411C184.082 235.228 184.892 234.151 185.853 233.216C187.635 231.644 189.326 229.971 190.917 228.206C194.361 222.862 204.3 207.794 204.5 207.819C203.554 207.749 202.604 207.734 201.656 207.775C200.738 207.736 199.818 207.795 198.913 207.952C198.209 208.498 198.811 208.732 198.106 209.282C196.093 210.84 194.389 212.705 192.377 214.264L183.349 221.253C181.198 222.758 179.249 224.535 177.553 226.539C177.442 226.686 177.33 226.835 177.219 226.988Z" fill="#F1CBD0"/>
<path d="M164.962 239.339C164.89 239.581 164.89 239.838 164.962 240.08C164.997 240.218 165.069 240.345 165.17 240.446C165.25 240.51 165.344 240.557 165.444 240.583C165.544 240.609 165.648 240.613 165.75 240.595C166.078 240.506 166.385 240.349 166.651 240.136C166.917 239.924 167.137 239.658 167.296 239.357L170.302 235.126L171.808 233.011C171.882 232.909 172.95 231.589 172.767 232.343C172.633 232.732 172.457 233.105 172.243 233.456C171.272 235.393 170.136 237.242 169.202 239.196C168.804 239.986 168.476 240.81 168.223 241.658C168.127 241.913 168.118 242.193 168.199 242.453C168.291 242.625 168.44 242.76 168.621 242.835C168.801 242.909 169.002 242.919 169.189 242.863C169.562 242.738 169.879 242.486 170.085 242.151C172.002 239.412 173.49 236.415 175.383 233.662C175.541 233.432 175.959 232.708 176.31 232.969C176.782 233.32 176.011 234.923 175.872 235.34C175.279 237.136 174.582 238.903 174.164 240.751C174.059 241.052 174.072 241.382 174.201 241.674C174.342 241.85 174.545 241.966 174.769 241.997C174.993 242.027 175.22 241.971 175.403 241.839C175.762 241.559 176.033 241.182 176.183 240.753C176.487 240.066 176.753 239.362 176.997 238.651C177.572 236.934 178.302 235.272 179.176 233.686C179.338 233.399 179.604 233.069 179.921 233.158C180.107 233.749 180.107 234.382 179.921 234.973C179.643 236.371 179.443 237.783 179.322 239.204C179.267 239.511 179.303 239.828 179.425 240.115C179.825 240.862 180.612 240.187 180.898 239.729C181.604 238.257 182.144 236.711 182.508 235.12C183.819 231.348 187.005 228.583 189.219 225.259C190.5 223.167 191.655 221 192.678 218.771C195.391 213.405 198.808 208.425 202.838 203.963C200.074 201.203 196.579 199.288 192.765 198.444C192.416 198.32 192.044 198.276 191.677 198.314C191.309 198.353 190.954 198.473 190.639 198.667C190.348 198.955 190.128 199.309 189.999 199.698C187.27 206.197 184.705 212.792 181.847 219.233C180.898 221.373 179.371 222.551 177.55 223.988C175.03 225.936 172.719 228.141 170.654 230.566C168.782 232.884 167.128 235.369 165.713 237.991C165.413 238.411 165.162 238.863 164.962 239.339Z" fill="#FFCCB6"/>
<path d="M199.537 201.242C199.319 201.103 199.062 201.036 198.803 201.052C198.535 201.127 198.299 201.291 198.135 201.517C195.716 204.235 194.311 207.909 192.756 211.155C192.368 211.965 191.999 212.782 191.631 213.605C190.212 217.192 188.419 220.62 186.282 223.832C185.19 225.38 183.853 226.741 182.324 227.86C180.729 228.973 178.775 229.342 177.592 231.067C177.348 231.435 177.14 231.825 176.97 232.233C176.851 232.428 176.765 232.641 176.714 232.863C176.714 233.068 176.505 233.735 176.38 233.579C176.296 233.468 176.332 233.307 176.257 233.193C176.21 233.136 176.145 233.098 176.072 233.085C176 233.072 175.925 233.084 175.861 233.12C175.734 233.197 175.629 233.303 175.554 233.431C173.644 236.147 172.214 239.179 170.29 241.884C170.102 242.181 169.862 242.443 169.583 242.656C169.442 242.762 169.278 242.832 169.105 242.86C168.931 242.889 168.754 242.875 168.587 242.82C168.447 242.764 168.308 242.628 168.35 242.486C168.379 242.388 168.477 242.332 168.565 242.282C169.675 241.507 170.563 240.456 171.14 239.232L172.543 236.823C173.221 235.543 174.05 234.35 175.014 233.268C175.241 232.996 175.539 232.792 175.876 232.679C176.148 232.61 176.628 232.663 176.666 233C176.697 233.276 176.377 233.803 176.276 234.059C175.96 234.862 175.599 235.645 175.281 236.447C174.75 237.573 174.312 238.74 173.971 239.937C173.841 240.538 173.791 241.705 174.572 241.92C174.777 241.96 174.989 241.946 175.187 241.878C175.384 241.81 175.56 241.691 175.697 241.533C175.967 241.213 176.174 240.846 176.309 240.45C176.865 239.086 177.368 237.702 177.947 236.348C178.232 235.68 178.534 235.027 178.868 234.387C178.996 234.14 179.547 232.738 179.951 233.29C180.01 233.393 180.033 233.513 180.016 233.631C179.945 235.473 179.366 237.194 179.148 239.01C179.086 239.513 179.13 240.16 179.604 240.34C179.723 240.377 179.849 240.385 179.973 240.366C180.096 240.347 180.213 240.3 180.315 240.229C180.751 239.886 181.066 239.413 181.215 238.878C181.822 237.639 182.328 236.353 182.728 235.032C183.112 233.825 183.66 232.677 184.358 231.62C185.893 229.634 187.622 227.742 189.081 225.695C190.356 223.71 191.461 221.62 192.384 219.449C194.088 215.912 196.126 212.547 198.471 209.398C199.162 208.471 199.969 207.638 200.732 206.771C201.433 205.974 201.956 205.009 202.699 204.275C202.755 204.228 202.798 204.169 202.825 204.101C202.87 203.954 202.758 203.81 202.653 203.696C202.254 203.168 201.799 202.686 201.295 202.258C201.008 202.059 200.711 201.875 200.404 201.709C200.206 201.591 199.767 201.242 199.537 201.242Z" fill="#FFB192"/>
<path d="M69.0527 137.941C69.0527 137.941 69.675 143.3 69.2341 144.275C68.7932 145.25 67.6554 144.386 67.6554 144.386C67.6554 144.386 68.3056 143.899 68.2589 143.411C68.2121 142.924 66.3662 140.812 65.8607 139.116C65.5714 138.204 65.3942 137.261 65.333 136.306" fill="#042759"/>
<path d="M80.353 161.043C77.819 161.043 74.9221 160.064 72.4683 159.472C70.2316 158.932 67.3893 158.549 65.343 157.505C64.9312 157.33 64.6018 157.005 64.4223 156.595C64.3321 156.235 64.339 155.857 64.4423 155.5C64.7574 153.977 65.363 149.506 67.4405 149.854L80.1036 151.978C82.5529 152.39 81.817 153.048 81.2559 155.121C80.8188 157.072 80.5171 159.051 80.353 161.043Z" fill="#DAE8FA"/>
<path d="M76.6456 151.398C74.3295 152.143 72.0693 153.051 69.8821 154.116C68.31 154.995 67.0089 156.289 66.1201 157.855C66.1201 157.855 63.9803 157.582 64.2119 156.541C64.4434 155.5 65.0235 151.103 66.0878 149.835C66.0878 149.835 68.8767 149.233 76.6456 151.398Z" fill="#A8C2E2"/>
<path d="M64.7114 154.116C64.7114 154.116 61.9782 155.82 60.4228 156.637C58.8675 157.453 52.9902 162.912 52.9902 162.912L64.7114 157.413C64.4784 156.894 64.358 156.332 64.358 155.764C64.358 155.196 64.4784 154.634 64.7114 154.116Z" fill="#578DDE"/>
</svg>
